<?xml version="1.0" encoding="utf-8"?>
<!-- Generator: Adobe Illustrator 24.0.0, SVG Export Plug-In . SVG Version: 6.00 Build 0)  -->
<svg version="1.1" id="Capa_1" xmlns="http://www.w3.org/2000/svg" xmlns:xlink="http://www.w3.org/1999/xlink" x="0px" y="0px"
	 viewBox="0 0 43 35" style="enable-background:new 0 0 43 35;" xml:space="preserve">
<style type="text/css">
	.st0{fill:#FFFFFF;}
</style>
<path class="st0" d="M36.4,5.2H23c-0.6,0-1,0.5-1,1s0.5,1,1,1h13.4c0.6,0,1-0.5,1-1S37,5.2,36.4,5.2z"/>
<path class="st0" d="M40,0.1H19.6c-1.2,0-2.2,1-2.2,2.2v2.3l-1.9-1.9c-0.2-0.2-0.5-0.3-0.8-0.3H4.9c-0.6,0-1.1,0.5-1.1,1.1v1.9H1.9
	c-0.6,0-1.1,0.5-1.1,1.1v24.3c0,2.3,1.8,4.1,4.1,4.1h25.7c1.9,0,3.5-1.3,4-3H40c1.2,0,2.2-1,2.2-2.2V2.3C42.2,1.1,41.2,0.1,40,0.1z
	 M30.6,11.4c1.1,0,1.9,0.9,1.9,1.9v17.4c0,1.1-0.9,1.9-1.9,1.9H4.9c-1.1,0-1.9-0.9-1.9-1.9V7.6h9.8l3.5,3.5c0.2,0.2,0.5,0.3,0.8,0.3
	H30.6z M17.4,9.2L14,5.7c-0.2-0.2-0.5-0.3-0.8-0.3H6V4.6h8.3l3.1,3.2V9.2z M40,2.9V29c0,0.4-0.3,0.6-0.6,0.6h-4.7V13.3
	c0-2.3-1.8-4.1-4.1-4.1h-11V2.9c0-0.4,0.3-0.6,0.6-0.6h19.2C39.7,2.3,40,2.6,40,2.9z"/>
<path class="st0" d="M24.4,22.1c0-0.1,0-0.2-0.1-0.3c-0.1-0.1-0.2-0.1-0.3-0.1l-1-0.2c0,0-0.1,0-0.1-0.1c0,0-0.1-0.1-0.1-0.1
	c0-0.1,0-0.3-0.1-0.4c0,0,0-0.1,0-0.1c0,0,0.1-0.1,0.1-0.1l0.9-0.5c0.1,0,0.2-0.1,0.2-0.2c0-0.1,0-0.2,0-0.3l-0.2-0.4
	c0-0.1-0.1-0.2-0.2-0.2c-0.1,0-0.2-0.1-0.3,0l-1,0.2c0,0-0.1,0-0.1,0c0,0-0.1-0.1-0.1-0.1c-0.1-0.1-0.1-0.2-0.2-0.3c0,0,0-0.1,0-0.1
	s0-0.1,0.1-0.1l0.7-0.8c0.1-0.1,0.1-0.2,0.1-0.3c0-0.1,0-0.2-0.1-0.3l-0.3-0.4c-0.1-0.1-0.2-0.1-0.3-0.1c-0.1,0-0.2,0-0.3,0.1
	l-0.9,0.5c0,0-0.1,0-0.1,0c0,0-0.1,0-0.1-0.1c-0.1-0.1-0.2-0.2-0.3-0.3c0,0-0.1-0.1-0.1-0.1c0,0,0-0.1,0-0.1l0.4-1
	c0-0.1,0-0.2,0-0.3c0-0.1-0.1-0.2-0.2-0.2L20.1,15c-0.1-0.1-0.2-0.1-0.3,0c-0.1,0-0.2,0.1-0.2,0.2l-0.7,0.8c0,0-0.1,0.1-0.1,0.1
	s-0.1,0-0.1,0c0,0-0.2-0.1-0.4-0.1c0,0-0.1,0-0.1-0.1c0,0,0-0.1,0-0.1l0-1.1c0-0.1,0-0.2-0.1-0.3c-0.1-0.1-0.2-0.1-0.3-0.2L17.3,14
	c-0.1,0-0.2,0-0.3,0.1c-0.1,0.1-0.2,0.1-0.2,0.2l-0.3,1c0,0,0,0.1-0.1,0.1c0,0-0.1,0-0.1,0h-0.4c0,0-0.1,0-0.1,0s-0.1-0.1-0.1-0.1
	l-0.3-1c0-0.1-0.1-0.2-0.2-0.2C15.1,14,15,14,14.9,14l-0.5,0.1c-0.1,0-0.2,0.1-0.3,0.2c-0.1,0.1-0.1,0.2-0.1,0.3l0,1.1
	c0,0,0,0.1,0,0.1c0,0-0.1,0.1-0.1,0.1c-0.1,0-0.3,0.1-0.4,0.1c-0.1,0-0.2,0-0.2-0.1l-0.7-0.8c-0.1-0.1-0.1-0.1-0.2-0.2
	c-0.1,0-0.2,0-0.3,0l-0.4,0.2c-0.1,0.1-0.2,0.1-0.2,0.2c0,0.1,0,0.2,0,0.3l0.4,1c0,0,0,0.1,0,0.1c0,0,0,0.1-0.1,0.1
	c-0.1,0.1-0.2,0.2-0.3,0.3c0,0-0.1,0.1-0.1,0.1c0,0-0.1,0-0.1,0l-0.9-0.6c-0.1-0.1-0.2-0.1-0.3-0.1c-0.1,0-0.2,0.1-0.3,0.1l-0.3,0.4
	c-0.1,0.1-0.1,0.2-0.1,0.3c0,0.1,0,0.2,0.1,0.3l0.7,0.8c0,0,0,0.1,0.1,0.1c0,0,0,0.1,0,0.1c-0.1,0.1-0.1,0.2-0.2,0.3
	c0,0-0.1,0.1-0.1,0.1c0,0-0.1,0-0.1,0l-1-0.2c-0.1,0-0.2,0-0.3,0c-0.1,0-0.2,0.1-0.2,0.2l-0.2,0.4c0,0.1,0,0.2,0,0.3
	c0,0.1,0.1,0.2,0.2,0.2l0.9,0.5c0,0,0.1,0.1,0.1,0.1c0,0,0,0.1,0,0.1l0,0.1c0,0.1,0,0.2-0.1,0.3c0,0,0,0.1-0.1,0.1
	c0,0-0.1,0.1-0.1,0.1l-1,0.2c-0.1,0-0.2,0.1-0.3,0.1c-0.1,0.1-0.1,0.2-0.1,0.3v0.5c0,0.1,0,0.2,0.1,0.3C7.9,23,8,23,8.1,23l1,0.2
	c0,0,0.1,0,0.1,0.1c0,0,0.1,0.1,0.1,0.1c0,0.1,0,0.3,0.1,0.4c0,0,0,0.1,0,0.1c0,0-0.1,0.1-0.1,0.1l-0.9,0.5c-0.1,0-0.2,0.1-0.2,0.2
	c0,0.1,0,0.2,0,0.3l0.2,0.4c0,0.1,0.1,0.2,0.2,0.2c0.1,0,0.2,0.1,0.3,0l1-0.2c0,0,0.1,0,0.1,0c0,0,0.1,0.1,0.1,0.1
	c0.1,0.1,0.1,0.2,0.2,0.3c0,0,0,0.1,0,0.1c0,0,0,0.1-0.1,0.1L9.6,27c-0.1,0.1-0.1,0.2-0.1,0.3c0,0.1,0,0.2,0.1,0.3L9.9,28
	c0.1,0.1,0.2,0.1,0.3,0.1c0.1,0,0.2,0,0.3-0.1l0.9-0.5c0,0,0.1,0,0.1,0c0,0,0.1,0,0.1,0.1c0.1,0.1,0.2,0.2,0.3,0.3
	c0,0,0.1,0.1,0.1,0.1c0,0,0,0.1,0,0.1l-0.4,1c0,0.1,0,0.2,0,0.3c0,0.1,0.1,0.2,0.2,0.2l0.4,0.2c0.1,0.1,0.2,0.1,0.3,0
	c0.1,0,0.2-0.1,0.2-0.2l0.7-0.8c0.1-0.1,0.1-0.1,0.2-0.1c0.1,0.1,0.2,0.1,0.4,0.1c0,0,0.1,0,0.1,0.1c0,0,0,0.1,0,0.1l0,1.1
	c0,0.1,0,0.2,0.1,0.3c0.1,0.1,0.2,0.1,0.3,0.2l0.5,0.1c0.1,0,0.2,0,0.3-0.1c0.1-0.1,0.2-0.1,0.2-0.2l0.3-1c0,0,0-0.1,0.1-0.1
	c0,0,0.1,0,0.1,0h0.4c0,0,0.1,0,0.1,0c0,0,0.1,0.1,0.1,0.1l0.3,1c0,0.1,0.1,0.2,0.2,0.2c0.1,0.1,0.2,0.1,0.2,0.1c0,0,0,0,0.1,0
	l0.5-0.1c0.1,0,0.2-0.1,0.3-0.2c0.1-0.1,0.1-0.2,0.1-0.3l0-1.1c0,0,0-0.1,0-0.1c0,0,0.1-0.1,0.1-0.1c0.2-0.1,0.3-0.1,0.4-0.1l0,0
	c0.1,0,0.2,0,0.2,0.1l0.7,0.8c0.1,0.1,0.1,0.1,0.2,0.2c0.1,0,0.2,0,0.3,0l0.4-0.2c0.1-0.1,0.2-0.1,0.2-0.2c0-0.1,0-0.2,0-0.3l-0.4-1
	c0,0,0-0.1,0-0.1s0-0.1,0.1-0.1c0.1-0.1,0.2-0.2,0.3-0.3c0,0,0.1-0.1,0.1-0.1c0,0,0.1,0,0.1,0l0.9,0.5c0.1,0.1,0.2,0.1,0.3,0.1
	c0.1,0,0.2-0.1,0.3-0.1l0.3-0.4c0.1-0.1,0.1-0.2,0.1-0.3c0-0.1,0-0.2-0.1-0.3l-0.7-0.8c0,0,0-0.1-0.1-0.1c0,0,0-0.1,0-0.1
	c0.1-0.1,0.1-0.2,0.2-0.3c0,0,0.1-0.1,0.1-0.1s0.1,0,0.1,0l1,0.2c0.1,0,0.2,0,0.3,0c0.1,0,0.2-0.1,0.2-0.2L24,25c0-0.1,0-0.2,0-0.3
	c0-0.1-0.1-0.2-0.2-0.2L22.9,24c0,0-0.1-0.1-0.1-0.1c0,0,0-0.1,0-0.1l0-0.1c0-0.1,0-0.2,0.1-0.3c0,0,0-0.1,0.1-0.1
	c0,0,0.1-0.1,0.1-0.1l1-0.2c0.1,0,0.2-0.1,0.3-0.1c0.1-0.1,0.1-0.2,0.1-0.3V22.1z M13.1,25.9c-0.1,0.1-0.1,0.2-0.2,0.2
	c-0.1,0.1-0.2,0.1-0.3,0.1c-0.1,0-0.2,0-0.3,0c-0.1,0-0.2-0.1-0.2-0.2c-0.9-1-1.4-2.3-1.4-3.7c0-1.4,0.5-2.7,1.4-3.7
	c0.1-0.1,0.2-0.1,0.2-0.2c0.1,0,0.2,0,0.3,0c0.1,0,0.2,0,0.3,0.1c0.1,0.1,0.2,0.1,0.2,0.2L15,22c0.1,0.1,0.1,0.2,0.1,0.3
	c0,0.1,0,0.2-0.1,0.3L13.1,25.9z M16.1,27.8c-0.4,0-0.8,0-1.1-0.1c-0.1,0-0.2-0.1-0.3-0.1c-0.1-0.1-0.1-0.1-0.2-0.2
	c0-0.1-0.1-0.2-0.1-0.3c0-0.1,0-0.2,0.1-0.3l1.8-3.2c0.1-0.1,0.1-0.2,0.2-0.2c0.1-0.1,0.2-0.1,0.3-0.1h3.7c0.1,0,0.2,0,0.3,0.1
	c0.1,0,0.2,0.1,0.2,0.2c0.1,0.1,0.1,0.2,0.1,0.3c0,0.1,0,0.2,0,0.3C20.6,26.2,18.5,27.8,16.1,27.8z M16.4,21.2L14.6,18
	c0-0.1-0.1-0.2-0.1-0.3c0-0.1,0-0.2,0.1-0.3c0-0.1,0.1-0.2,0.2-0.2c0.1-0.1,0.2-0.1,0.3-0.1c0.4-0.1,0.7-0.1,1.1-0.1
	c2.4,0,4.5,1.6,5.2,3.8c0,0.1,0,0.2,0,0.3c0,0.1-0.1,0.2-0.1,0.3c-0.1,0.1-0.1,0.1-0.2,0.2c-0.1,0-0.2,0.1-0.3,0.1H17
	c-0.1,0-0.2,0-0.3-0.1C16.5,21.4,16.5,21.3,16.4,21.2z"/>
</svg>
