<?xml version="1.0" encoding="utf-8"?>
<!-- Generator: Adobe Illustrator 24.0.0, SVG Export Plug-In . SVG Version: 6.00 Build 0)  -->
<svg version="1.1" id="Capa_1" xmlns="http://www.w3.org/2000/svg" xmlns:xlink="http://www.w3.org/1999/xlink" x="0px" y="0px"
	 viewBox="0 0 37 35" style="enable-background:new 0 0 37 35;" xml:space="preserve">
<style type="text/css">
	.st0{fill:#FFFFFF;}
</style>
<path class="st0" d="M36.6,18.6L34.1,4.9c-0.5-3-2.4-4.8-5.2-4.8H8.1c-1.4,0-2.5,0.4-3.4,1.3c-0.9,0.8-1.5,2-1.8,3.5L0.4,18.6
	c0,0.1,0,0.2,0,0.3v10.1c0,1.5,0.5,3,1.5,4.1c1,1.1,2.3,1.7,3.7,1.7h26c1.4,0,2.7-0.6,3.7-1.7s1.5-2.6,1.5-4.1V18.9
	C36.7,18.8,36.7,18.7,36.6,18.6z M5.5,5.5L5.5,5.5C5.8,3.8,6.6,3,8.1,3h20.8c1.5,0,2.3,0.8,2.6,2.4c0,0,0,0,0,0l2.2,11.6
	c0,0.1,0,0.1,0,0.2c0,0.1,0,0.1-0.1,0.1c0,0-0.1,0.1-0.1,0.1c0,0-0.1,0-0.1,0h-9.7c-0.3,0-0.7,0.1-0.9,0.4c-0.2,0.3-0.4,0.6-0.4,1
	c0,1.2-0.4,2.3-1.1,3.1c-0.7,0.8-1.7,1.3-2.8,1.3c-1,0-2-0.5-2.8-1.3c-0.7-0.8-1.1-1.9-1.1-3.1c0-0.2,0-0.4-0.1-0.6
	c-0.1-0.2-0.2-0.3-0.3-0.5c-0.1-0.1-0.3-0.2-0.4-0.3c-0.2-0.1-0.3-0.1-0.5-0.1H3.6c0,0-0.1,0-0.1,0c0,0-0.1-0.1-0.1-0.1
	c0,0-0.1-0.1-0.1-0.1c0-0.1,0-0.1,0-0.2L5.5,5.5z"/>
<path class="st0" d="M27.6,8.1H9.4C9.1,8.1,8.7,8,8.5,7.7C8.3,7.5,8.1,7.1,8.1,6.8s0.1-0.7,0.4-0.9c0.2-0.3,0.6-0.4,0.9-0.4h18.2
	c0.3,0,0.7,0.1,0.9,0.4s0.4,0.6,0.4,0.9s-0.1,0.7-0.4,0.9C28.3,8,27.9,8.1,27.6,8.1z M28.9,13.5H8.1c-0.3,0-0.7-0.1-0.9-0.4
	c-0.2-0.3-0.4-0.6-0.4-0.9c0-0.4,0.1-0.7,0.4-0.9c0.2-0.3,0.6-0.4,0.9-0.4h20.8c0.3,0,0.7,0.1,0.9,0.4c0.2,0.3,0.4,0.6,0.4,0.9
	c0,0.4-0.1,0.7-0.4,0.9C29.6,13.3,29.2,13.5,28.9,13.5z"/>
</svg>
