<svg id="Capa_1" data-name="Capa 1" xmlns="http://www.w3.org/2000/svg" viewBox="0 0 34 34"><defs><style>.cls-1{fill:#fff;}</style></defs><title>bpmWhite</title><g id="Group_33956" data-name="Group 33956"><path id="Vector" class="cls-1" d="M16.35.1a2.11,2.11,0,0,0-1.17,1.19,2.14,2.14,0,0,0,.09,1.48,2.36,2.36,0,0,0,1,.92l.22.09V4.87c0,1.07,0,1.09.17,1.26A.53.53,0,0,0,17,6.3a.55.55,0,0,0,.38-.17c.16-.17.17-.19.17-1.26V3.78l.22-.09a2.49,2.49,0,0,0,1-.92,2.2,2.2,0,0,0,.09-1.48A2,2,0,0,0,17.62.1,2,2,0,0,0,16.35.1Zm1.24,1.29A.79.79,0,0,1,17,2.73a.8.8,0,0,1-.64-1.3.7.7,0,0,1,.74-.31A.66.66,0,0,1,17.59,1.39Z" transform="translate(0 0)"/><path id="Vector_2" data-name="Vector 2" class="cls-1" d="M5.94,4.45a1.92,1.92,0,0,0-.36,3.64A2.08,2.08,0,0,0,7,8.14L7.23,8,8,8.81c.68.66.83.78,1,.78A.57.57,0,0,0,9.59,9c0-.18-.11-.33-.78-1L8,7.22,8.14,7a2,2,0,0,0-.05-1.41A2,2,0,0,0,5.94,4.45Zm.88,1.21a.86.86,0,0,1,.32.85.82.82,0,1,1-.32-.85Z" transform="translate(0 0)"/><path id="Vector_3" data-name="Vector 3" class="cls-1" d="M27.26,4.45a1.93,1.93,0,0,0-1.51,1.88,1.91,1.91,0,0,0,.11.65l.1.24-.78.8c-.66.68-.78.83-.78,1a.52.52,0,0,0,.17.39.54.54,0,0,0,.39.17c.18,0,.33-.12,1-.78l.8-.78.24.11a2.08,2.08,0,0,0,1.41-.05,1.93,1.93,0,0,0,0-3.5A2.1,2.1,0,0,0,27.26,4.45Zm.82,1.2a.83.83,0,0,1,.38.67.81.81,0,1,1-1.38-.57A.76.76,0,0,1,28.08,5.65Z" transform="translate(0 0)"/><path id="Vector_4" data-name="Vector 4" class="cls-1" d="M15.37,7.18A3.76,3.76,0,0,0,15,8l-.26.69-.46.14a10.64,10.64,0,0,0-1,.41l-.55.27-.65-.3a3.65,3.65,0,0,0-.86-.3c-.17,0-.36.17-1.24,1S8.91,11,8.91,11.2a3.49,3.49,0,0,0,.29.86l.3.65-.26.55c-.15.3-.33.75-.42,1l-.14.46L8,15a3.66,3.66,0,0,0-.81.38c-.11.11-.13.27-.13,1.64s0,1.52.13,1.63A3.66,3.66,0,0,0,8,19l.69.26.14.46c.09.25.27.7.42,1l.26.55-.3.65a3.49,3.49,0,0,0-.29.86c0,.17.16.36,1.05,1.25S11,25.09,11.2,25.09a3.65,3.65,0,0,0,.86-.3l.65-.3.55.27a10.64,10.64,0,0,0,1,.41l.46.14L15,26a3.76,3.76,0,0,0,.39.81c.1.11.26.13,1.63.13s1.52,0,1.63-.13A3.43,3.43,0,0,0,19,26l.26-.69.46-.14a10.64,10.64,0,0,0,1-.41l.55-.27.65.3a3.65,3.65,0,0,0,.86.3c.17,0,.36-.17,1.25-1.05s1.05-1.08,1.05-1.25a3.65,3.65,0,0,0-.3-.86l-.3-.65.27-.55a10.64,10.64,0,0,0,.41-1l.14-.46L26,19a3.91,3.91,0,0,0,.81-.38c.11-.11.12-.27.12-1.63s0-1.53-.12-1.64A3.91,3.91,0,0,0,26,15l-.7-.26-.14-.46a10.64,10.64,0,0,0-.41-1l-.27-.55.3-.65a3.65,3.65,0,0,0,.3-.86c0-.17-.17-.36-1.05-1.25s-1.08-1-1.25-1a3.65,3.65,0,0,0-.86.3l-.65.3-.55-.27a10.64,10.64,0,0,0-1-.41l-.46-.14L19,8a3.43,3.43,0,0,0-.38-.81c-.11-.11-.27-.13-1.63-.13S15.47,7.07,15.37,7.18Zm2.79,1.65a2.84,2.84,0,0,0,.37.73,4.75,4.75,0,0,0,.72.27,9.23,9.23,0,0,1,1.26.53l.68.34.35-.14c.2-.07.52-.21.72-.29l.37-.16.62.63.63.63-.16.36c-.08.2-.22.52-.29.72l-.14.36.34.67a9.33,9.33,0,0,1,.53,1.27,4.18,4.18,0,0,0,.28.71,2.54,2.54,0,0,0,.72.37l.65.25v1.83l-.65.25a2.54,2.54,0,0,0-.72.37,4.59,4.59,0,0,0-.28.71,9.33,9.33,0,0,1-.53,1.27l-.34.67.14.36c.07.2.21.52.29.72l.16.36-.63.63-.62.63-.37-.16c-.2-.08-.52-.22-.72-.29l-.35-.14-.68.34a9.23,9.23,0,0,1-1.26.53,4.75,4.75,0,0,0-.72.27,2.84,2.84,0,0,0-.37.73l-.24.65H16.08l-.25-.65a2.84,2.84,0,0,0-.37-.73,4.48,4.48,0,0,0-.71-.27,9.33,9.33,0,0,1-1.27-.53l-.67-.34-.36.14c-.2.07-.52.21-.72.29l-.36.16-.63-.63-.63-.63.16-.36.3-.72.13-.36-.34-.67a9.33,9.33,0,0,1-.53-1.27,3.94,3.94,0,0,0-.27-.71,2.84,2.84,0,0,0-.73-.37l-.64-.25V16.08l.64-.25a2.84,2.84,0,0,0,.73-.37,3.64,3.64,0,0,0,.27-.71,9.33,9.33,0,0,1,.53-1.27l.34-.67-.13-.36-.3-.72-.16-.36.63-.63.63-.63.36.16c.2.08.52.22.72.29l.36.14.67-.34a9.89,9.89,0,0,1,1.27-.53,3.32,3.32,0,0,0,.74-.3,2.66,2.66,0,0,0,.34-.69c.12-.33.23-.61.25-.64a5,5,0,0,1,.94,0l.9,0Z" transform="translate(0 0)"/><path id="Vector_5" data-name="Vector 5" class="cls-1" d="M15.88,11.07a6,6,0,1,0,6.2,2.7A6.07,6.07,0,0,0,15.88,11.07Zm2.59,1.22a4.63,4.63,0,0,1,2,1.24,4.79,4.79,0,0,1,1.25,2A3.68,3.68,0,0,1,21.89,17a3.65,3.65,0,0,1-.18,1.47,4.79,4.79,0,0,1-1.25,2,4.73,4.73,0,0,1-2,1.25,3.84,3.84,0,0,1-1.47.18,3.87,3.87,0,0,1-1.48-.18,5.23,5.23,0,0,1-3.23-3.24A3.65,3.65,0,0,1,12.11,17a3.55,3.55,0,0,1,.17-1.46,4.71,4.71,0,0,1,1.25-2,4.8,4.8,0,0,1,2.61-1.4A6.16,6.16,0,0,1,18.47,12.29Z" transform="translate(0 0)"/><path id="Vector_6" data-name="Vector 6" class="cls-1" d="M16.13,13.05A4.11,4.11,0,0,0,13,17.65c.12.64.52.9.91.59.16-.13.16-.17.16-1A2.93,2.93,0,0,1,14.24,16,3.19,3.19,0,0,1,16,14.24a3.72,3.72,0,0,1,1.87-.07c.24.09.25.1.15.24a.51.51,0,0,0,.19.78c.17.09.34.09.93.06s.75-.08.88-.21.2-.26,0-1.06a1.82,1.82,0,0,0-.35-.81.5.5,0,0,0-.72,0l-.14.16-.48-.16A4.36,4.36,0,0,0,16.13,13.05Z" transform="translate(0 0)"/><path id="Vector_7" data-name="Vector 7" class="cls-1" d="M20.08,15.75c-.16.13-.17.18-.17,1A2.64,2.64,0,0,1,19.75,18,3.2,3.2,0,0,1,18,19.75a3.73,3.73,0,0,1-1.87.07c-.24-.09-.25-.1-.16-.24a.5.5,0,0,0-.18-.77c-.17-.09-.34-.1-.93-.07s-.75.08-.89.22-.2.24,0,1.05a1.7,1.7,0,0,0,.35.8.49.49,0,0,0,.72,0l.15-.16.47.16A4,4,0,0,0,21,17.54a2.41,2.41,0,0,0-.26-1.76A.47.47,0,0,0,20.08,15.75Z" transform="translate(0 0)"/><path id="Vector_8" data-name="Vector 8" class="cls-1" d="M1.23,15.19A2.19,2.19,0,0,0,.1,16.38a2,2,0,0,0,0,1.23,2,2,0,0,0,1.19,1.2,2.17,2.17,0,0,0,1.49-.09,2.33,2.33,0,0,0,.91-1l.09-.22h1.1c1.06,0,1.09,0,1.25-.17a.49.49,0,0,0,0-.75c-.16-.17-.19-.17-1.25-.17H3.78l-.09-.23a2.33,2.33,0,0,0-.92-.95A2.38,2.38,0,0,0,1.23,15.19Zm1.09,1.09a.83.83,0,0,1,.42.72.82.82,0,0,1-.86.82.69.69,0,0,1-.5-.23A.6.6,0,0,1,1.12,17a.58.58,0,0,1,.26-.59A.76.76,0,0,1,2.32,16.28Z" transform="translate(0 0)"/><path id="Vector_9" data-name="Vector 9" class="cls-1" d="M31.53,15.14a2.17,2.17,0,0,0-1.22,1.08l-.09.23h-1.1c-1.06,0-1.09,0-1.26.17a.51.51,0,0,0,0,.75c.17.17.2.17,1.26.17h1.1l.09.22a2.33,2.33,0,0,0,.91,1,2.17,2.17,0,0,0,1.49.09A2,2,0,0,0,34,17a2,2,0,0,0-2-1.92A2.25,2.25,0,0,0,31.53,15.14Zm1.09,1.27a.58.58,0,0,1,.25.59.59.59,0,0,1-.25.59.79.79,0,0,1-.95.13.85.85,0,0,1,0-1.44A.79.79,0,0,1,32.62,16.41Z" transform="translate(0 0)"/><path id="Vector_10" data-name="Vector 10" class="cls-1" d="M8,25.18,7.23,26,7,25.85a2.11,2.11,0,0,0-1.42,0,1.91,1.91,0,1,0,2.52,2.52A2,2,0,0,0,8.14,27L8,26.77l.77-.8c.67-.68.78-.83.78-1a.54.54,0,0,0-.17-.39A.52.52,0,0,0,9,24.4C8.85,24.4,8.7,24.52,8,25.18ZM6.82,27a.83.83,0,0,1,.33.71.8.8,0,0,1-1.38.53.79.79,0,0,1,0-1.14A.82.82,0,0,1,6.82,27Z" transform="translate(0 0)"/><path id="Vector_11" data-name="Vector 11" class="cls-1" d="M24.57,24.57a.54.54,0,0,0-.17.39c0,.18.12.33.78,1l.78.8-.1.24a2.08,2.08,0,0,0,0,1.41,1.91,1.91,0,1,0,2.52-2.52,2.08,2.08,0,0,0-1.41,0l-.24.11-.8-.78c-.68-.66-.83-.78-1-.78A.54.54,0,0,0,24.57,24.57ZM28.15,27a.91.91,0,0,1,.3.85.82.82,0,0,1-1.1.57.79.79,0,0,1-.27-1.33A.82.82,0,0,1,28.15,27Z" transform="translate(0 0)"/><path id="Vector_12" data-name="Vector 12" class="cls-1" d="M16.62,27.86c-.16.17-.17.2-.17,1.26v1.1l-.22.08a2.36,2.36,0,0,0-1,.92,2.14,2.14,0,0,0-.09,1.48,1.92,1.92,0,0,0,3.64,0,2.2,2.2,0,0,0-.09-1.48,2.49,2.49,0,0,0-1-.92l-.22-.08v-1.1c0-1.06,0-1.09-.17-1.26a.55.55,0,0,0-.38-.17A.53.53,0,0,0,16.62,27.86Zm.79,3.5a.84.84,0,0,1,.41.75.69.69,0,0,1-.23.5.57.57,0,0,1-.59.26.57.57,0,0,1-.59-.26.76.76,0,0,1-.13-.94A.85.85,0,0,1,17.41,31.36Z" transform="translate(0 0)"/></g></svg>