<?xml version="1.0" encoding="utf-8"?>
<!-- Generator: Adobe Illustrator 24.0.0, SVG Export Plug-In . SVG Version: 6.00 Build 0)  -->
<svg version="1.1" id="Capa_1" xmlns="http://www.w3.org/2000/svg" xmlns:xlink="http://www.w3.org/1999/xlink" x="0px" y="0px"
	 viewBox="0 0 43 38" style="enable-background:new 0 0 43 38;" xml:space="preserve">
<style type="text/css">
	.st0{fill:none;stroke:#41BAEA;stroke-width:3;stroke-miterlimit:10;}
	.st1{fill:none;stroke:#41BAEA;stroke-width:3;stroke-linecap:round;stroke-miterlimit:10;}
	.st2{fill:none;stroke:#41BAEA;stroke-width:3;stroke-linecap:round;}
</style>
<path class="st0" d="M16.1,1.7c-2.7,0-5.4,0.8-7.7,2.3c-2.3,1.5-4.1,3.7-5.1,6.2c-1,2.5-1.3,5.3-0.8,8c0.5,2.7,1.9,5.2,3.8,7.1
	c1.9,1.9,4.4,3.3,7.1,3.8c2.7,0.5,5.5,0.3,8-0.8s4.7-2.8,6.2-5.1c1.5-2.3,2.3-5,2.3-7.7c0-3.7-1.5-7.2-4.1-9.8
	C23.3,3.2,19.8,1.7,16.1,1.7z"/>
<path class="st1" d="M26.4,25.9l9.7,9.7"/>
<path class="st2" d="M22.7,9l14-0.1"/>
<path class="st2" d="M24.7,14l14-0.1"/>
<path class="st2" d="M26.7,19l14-0.1"/>
</svg>
