<?xml version="1.0" encoding="utf-8"?>
<!-- Generator: Adobe Illustrator 24.0.0, SVG Export Plug-In . SVG Version: 6.00 Build 0)  -->
<svg version="1.1" id="Capa_1" xmlns="http://www.w3.org/2000/svg" xmlns:xlink="http://www.w3.org/1999/xlink" x="0px" y="0px"
	 viewBox="0 0 30 25" style="enable-background:new 0 0 30 25;" xml:space="preserve">
<style type="text/css">
	.st0{fill:none;stroke:#FFFFFF;stroke-width:2;stroke-linecap:round;stroke-linejoin:round;}
</style>
<path id="Vector" class="st0" d="M11.5,6.8V3.9c0-0.8,0.3-1.5,0.9-2C12.9,1.3,13.6,1,14.4,1l11.7,0c0.8,0,1.5,0.3,2.1,0.8
	c0.5,0.5,0.9,1.3,0.9,2v17.3c0,0.8-0.3,1.5-0.9,2c-0.5,0.5-1.3,0.8-2.1,0.8H15c-1.6,0-3.5-1.3-3.5-2.9v-2.9 M6.8,6.8L1,12.5l5.8,5.8
	 M20.8,12.5H2.2"/>
</svg>
