<?xml version="1.0" encoding="utf-8"?>
<!-- Generator: Adobe Illustrator 24.0.0, SVG Export Plug-In . SVG Version: 6.00 Build 0)  -->
<svg version="1.1" id="Capa_1" xmlns="http://www.w3.org/2000/svg" xmlns:xlink="http://www.w3.org/1999/xlink" x="0px" y="0px"
	 viewBox="0 0 20 21" style="enable-background:new 0 0 20 21;" xml:space="preserve">
<style type="text/css">
	.st0{fill:#697A8D;}
</style>
<path class="st0" d="M20,9.2c-0.1,0.2-0.1,0.3-0.1,0.5c-0.1,0.5-0.4,0.8-0.9,0.8c-0.5,0-0.8-0.4-0.7-0.9c0.1-0.9,0.1-1.7-0.2-2.5
	c-0.3-1.1-1-2.1-1.9-2.8c-1.6-1.4-3.5-2-5.6-1.7c-2,0.2-3.7,1.1-5,2.7C4.3,7,4,9,5.1,11.2c1,2,2.7,3.2,4.9,3.7
	c1.4,0.3,2.8,0.2,4.2-0.4c0.4-0.2,0.8-0.2,1.2,0c0.8,0.4,1.5,0.7,2.3,1c0,0,0,0,0.1,0c0-0.1,0-0.1,0-0.2c-0.3-0.7-0.5-1.3-0.8-2
	c-0.2-0.5,0.1-1,0.6-1.1c0.4-0.1,0.7,0.1,0.9,0.5c0.3,0.6,0.5,1.2,0.7,1.8c0.3,0.8,0.6,1.5,0.9,2.3v0.3c-0.1,0.2-0.2,0.4-0.4,0.5
	c-0.3,0.1-0.5,0.1-0.8,0c-1.3-0.6-2.6-1.2-4-1.7c-0.1,0-0.2-0.1-0.3,0c-0.4,0.2-0.8,0.3-1.2,0.3c-0.2,0-0.3,0.1-0.4,0.3
	c-0.7,1-1.6,1.8-2.7,2.4c-1.8,0.9-3.7,1-5.6,0.3c-0.2-0.1-0.3-0.1-0.5,0c-1,0.4-2,0.9-3,1.3c-0.2,0.1-0.4,0.1-0.5,0.1
	c-0.5-0.1-0.8-0.6-0.5-1.1c0.3-0.8,0.7-1.6,1-2.5C1.2,17,1.2,16.8,1,16.6c-1.1-1.7-1.3-3.5-0.7-5.4c0.4-1.3,1.2-2.2,2.3-3
	C2.9,8,2.9,7.9,3,7.7c0.2-1.3,0.7-2.5,1.5-3.6c1.4-1.8,3.3-2.9,5.6-3.2c0.3,0,0.6-0.1,0.9-0.1c0.3,0,0.6,0,0.9,0
	c0.4,0,0.8,0.1,1.1,0.1c1.3,0.2,2.5,0.7,3.6,1.5c1.6,1.2,2.7,2.7,3.2,4.6c0.1,0.4,0.1,0.8,0.2,1.2L20,9.2L20,9.2z M11,16.6
	C6.9,16.1,4.1,14,3,10c0,0,0,0,0,0c-1.1,1.1-1.6,2.4-1.3,4c0.1,0.8,0.5,1.5,1,2.2c0.3,0.3,0.3,0.7,0.2,1.1c-0.1,0.3-0.3,0.7-0.4,1
	c0,0.1-0.1,0.2-0.1,0.3c0.5-0.2,1-0.4,1.5-0.7c0.4-0.2,0.8-0.2,1.2,0C6,18.2,7.2,18.3,8.3,18C9.3,17.8,10.2,17.3,11,16.6L11,16.6z"
	/>
</svg>
