<?xml version="1.0" encoding="utf-8"?>
<!-- Generator: Adobe Illustrator 24.0.0, SVG Export Plug-In . SVG Version: 6.00 Build 0)  -->
<svg version="1.1" id="Capa_1" xmlns="http://www.w3.org/2000/svg" xmlns:xlink="http://www.w3.org/1999/xlink" x="0px" y="0px"
	 viewBox="0 0 29 37" style="enable-background:new 0 0 29 37;" xml:space="preserve">
<style type="text/css">
	.st0{fill:none;stroke:#41BAEA;stroke-miterlimit:10;}
	.st1{fill:none;stroke:#41BAEA;stroke-linecap:round;stroke-miterlimit:10;}
	.st2{fill:none;stroke:#41BAEA;stroke-width:2;stroke-linejoin:round;}
	.st3{fill:none;stroke:#41BAEA;stroke-width:2;stroke-linecap:round;stroke-linejoin:round;}
</style>
<path class="st0" d="M13.5,18.5c-0.9,0-1.7,0.3-2.4,0.7s-1.3,1.2-1.6,2C9.1,22,9,22.9,9.2,23.8c0.2,0.9,0.6,1.6,1.2,2.3
	c0.6,0.6,1.4,1,2.3,1.2s1.7,0.1,2.5-0.3c0.8-0.3,1.5-0.9,2-1.6c0.5-0.7,0.7-1.6,0.7-2.4c0-1.2-0.5-2.3-1.3-3.1
	C15.8,19,14.7,18.5,13.5,18.5z"/>
<path class="st1" d="M16.8,26.2l3.1,3.1"/>
<path class="st2" d="M28,15.6V32c0,1.1-0.4,2.1-1.2,2.9C26,35.6,25,36,23.9,36H5.1C4,36,3,35.6,2.2,34.8C1.5,34.1,1,33,1,32V5
	C1,4,1.5,2.9,2.2,2.2S4,1,5.1,1h8.3c0.7,0,1.4,0.3,1.9,0.8l11.9,11.9C27.7,14.2,28,14.9,28,15.6z"/>
<path class="st3" d="M14.5,1.7v10.1c0,0.7,0.3,1.4,0.8,1.9s1.2,0.8,1.9,0.8h10.1"/>
</svg>
