<?xml version="1.0" encoding="utf-8"?>
<!-- Generator: Adobe Illustrator 24.0.0, SVG Export Plug-In . SVG Version: 6.00 Build 0)  -->
<svg version="1.1" id="Capa_1" xmlns="http://www.w3.org/2000/svg" xmlns:xlink="http://www.w3.org/1999/xlink" x="0px" y="0px"
	 viewBox="0 0 43 35" style="enable-background:new 0 0 43 35;" xml:space="preserve">
<style type="text/css">
	.st0{fill:#41BAEA;}
</style>
<path class="st0" d="M5.4,26.3v3.4c0,0.5,0.5,0.9,1.1,0.9h13.6c0.6,0,1.1-0.4,1.1-0.9v-3.4c0-0.5-0.5-0.9-1.1-0.9H6.5
	C5.9,25.4,5.4,25.8,5.4,26.3z M7.6,28.8v-1.6H19v1.6H7.6z"/>
<path class="st0" d="M36.4,5.2H23c-0.6,0-1,0.5-1,1s0.5,1,1,1h13.4c0.6,0,1-0.5,1-1S37,5.2,36.4,5.2z"/>
<path class="st0" d="M40,0.1H19.6c-1.2,0-2.2,1-2.2,2.2v2.3l-1.9-1.9c-0.2-0.2-0.5-0.3-0.8-0.3H4.9c-0.6,0-1.1,0.5-1.1,1.1v1.9H1.9
	c-0.6,0-1.1,0.5-1.1,1.1v24.3c0,2.3,1.8,4.1,4.1,4.1h25.7c1.9,0,3.5-1.3,4-3H40c1.2,0,2.2-1,2.2-2.2V2.3C42.2,1.1,41.2,0.1,40,0.1z
	 M30.6,11.4c1.1,0,1.9,0.9,1.9,1.9v17.4c0,1.1-0.9,1.9-1.9,1.9H4.9c-1.1,0-1.9-0.9-1.9-1.9V7.6h9.8l3.5,3.5c0.2,0.2,0.5,0.3,0.8,0.3
	H30.6z M17.4,9.2L14,5.7c-0.2-0.2-0.5-0.3-0.8-0.3H6V4.6h8.3l3.1,3.2V9.2z M40,2.9V29c0,0.4-0.3,0.6-0.6,0.6h-4.7V13.3
	c0-2.3-1.8-4.1-4.1-4.1h-11V2.9c0-0.4,0.3-0.6,0.6-0.6h19.2C39.7,2.3,40,2.6,40,2.9z"/>
</svg>
