<?xml version="1.0" encoding="utf-8"?>
<!-- Generator: Adobe Illustrator 24.0.0, SVG Export Plug-In . SVG Version: 6.00 Build 0)  -->
<svg version="1.1" id="Capa_1" xmlns="http://www.w3.org/2000/svg" xmlns:xlink="http://www.w3.org/1999/xlink" x="0px" y="0px"
	 viewBox="0 0 35 36" style="enable-background:new 0 0 35 36;" xml:space="preserve">
<style type="text/css">
	.st0{fill:#FFFFFF;}
	.st1{fill:none;stroke:#FFFFFF;stroke-width:2;}
</style>
<path id="Vector" class="st0" d="M0.1,20c0-4.9,0-9.7,0-14.6c0-2.8,2-4.8,4.8-4.8c8.4,0,16.8,0,25.2,0c2.8,0,4.8,2,4.8,4.8
	c0,3.7,0,7.3,0,11c0,0.3-0.1,0.4-0.4,0.4c-2.1,0-4.1,0-6.2,0c-0.3,0-0.4,0.1-0.4,0.4c0,5.9,0,11.8,0,17.7c0,0.3-0.1,0.4-0.4,0.4
	c-9,0-18,0-27,0c-0.3,0-0.4-0.1-0.4-0.4C0.1,30,0.1,25,0.1,20L0.1,20z M26.2,2.9c-0.2,0-0.3,0-0.4,0c-7,0-13.9,0-20.9,0
	c-1.6,0-2.5,1-2.5,2.5c0,9.1,0,18.1,0,27.2c0,0.3,0.1,0.4,0.4,0.4c7.4,0,14.9,0,22.3,0c0.4,0,0.4-0.1,0.4-0.5c0-8.9,0-17.7,0-26.6
	C25.6,5,25.6,3.9,26.2,2.9L26.2,2.9z M27.9,9.7c0,1.5,0,3,0,4.5c0,0.3,0.1,0.3,0.3,0.3c1.3,0,2.6,0,3.9,0c0.3,0,0.4-0.1,0.4-0.4
	c0-2.9,0-5.9,0-8.8c0-1.4-1-2.4-2.3-2.4c-1.3,0-2.3,1-2.3,2.4C27.9,6.8,27.9,8.2,27.9,9.7L27.9,9.7z"/>
<path id="Vector_138" class="st1" d="M7.5,12.7h14.7"/>
<path id="Vector_139" class="st1" d="M7.5,18h14.7"/>
<path id="Vector_140" class="st1" d="M7.5,23.4h14.7"/>
</svg>
