<?xml version="1.0" encoding="utf-8"?>
<!-- Generator: Adobe Illustrator 24.0.0, SVG Export Plug-In . SVG Version: 6.00 Build 0)  -->
<svg version="1.1" id="Capa_1" xmlns="http://www.w3.org/2000/svg" xmlns:xlink="http://www.w3.org/1999/xlink" x="0px" y="0px"
	 viewBox="0 0 32 27" style="enable-background:new 0 0 32 27;" xml:space="preserve">
<style type="text/css">
	.st0{fill:none;stroke:#FFFFFF;stroke-width:2;stroke-linejoin:round;}
	.st1{fill:none;stroke:#FFFFFF;stroke-width:2;stroke-linecap:round;stroke-linejoin:round;}
</style>
<g id="Group_33893">
	<g id="Group_33894">
		<path id="Vector" class="st0" d="M27,5.1H4.1C2.4,5.1,1,6.5,1,8.2v14.3c0,1.7,1.4,3.1,3.1,3.1H27c1.7,0,3.1-1.4,3.1-3.1V8.2
			C30.2,6.5,28.8,5.1,27,5.1z"/>
		<path id="Vector_2" class="st1" d="M8.3,5.1V3c0-0.5,0.2-1.1,0.6-1.4C9.3,1.2,9.8,1,10.4,1h10.4c0.6,0,1.1,0.2,1.5,0.6
			C22.7,2,22.9,2.5,22.9,3v2 M30.2,12.3H1 M19.8,12.3v1.5c0,0.1-0.1,0.3-0.2,0.4c-0.1,0.1-0.2,0.2-0.4,0.2h-7.3
			c-0.1,0-0.3-0.1-0.4-0.2c-0.1-0.1-0.2-0.2-0.2-0.4v-1.5"/>
	</g>
</g>
</svg>
