<?xml version="1.0" encoding="utf-8"?>
<!-- Generator: Adobe Illustrator 24.0.0, SVG Export Plug-In . SVG Version: 6.00 Build 0)  -->
<svg version="1.1" id="Capa_1" xmlns="http://www.w3.org/2000/svg" xmlns:xlink="http://www.w3.org/1999/xlink" x="0px" y="0px"
	 viewBox="0 0 39 35" style="enable-background:new 0 0 39 35;" xml:space="preserve">
<style type="text/css">
	.st0{fill:#41BAEA;}
</style>
<g id="Group_33881">
	<path id="Vector" class="st0" d="M35.2,20.6c-0.7-1.3-1.4-2.6-2.1-3.9c-0.4-0.8-0.9-1.6-1.3-2.3c-0.7-1.3-1.5-2.6-2.1-4
		c0-0.1-0.2-0.2-0.2-0.3c-0.1-0.6-0.6-0.7-1.2-0.7c-1.1,0-2.2,0-3.2,0c-0.8,0-1.3-0.3-1.6-1c-0.2-0.3,0.3-1.1,0.6-1.3
		C24.4,7.1,24.7,7,25.1,7c1.7,0,3.4,0,5.1,0c0.6,0,1.1,0.2,1.4,0.8c0.5,0.9,0.9,1.7,1.4,2.6c0.4,0.8,0.9,1.6,1.3,2.5
		c0.7,1.3,1.4,2.5,2.1,3.8c0.4,0.8,0.9,1.6,1.3,2.5c0.3,0.7,0.7,1.3,1.1,1.9c0.1,0.3,0.2,0.6,0.2,0.9c0,3.6,0,7.2,0,10.7
		c0,0.9-0.6,1.4-1.5,1.4c-0.1,0-0.2,0-0.2,0c-11.8,0-23.7,0-35.5,0c-0.4,0-0.8,0-1.1-0.3C0.2,33.7,0,33.3,0,32.8c0-2.5,0-5.1,0-7.6
		c0-1.1,0-2.2,0-3.2c0-0.5,0.2-0.8,0.4-1.2c0.1-0.1,0.1-0.2,0.1-0.2c0.3-0.8,0.7-1.6,1.1-2.4c0.4-1,0.9-1.9,1.4-2.8
		c0.5-0.9,0.9-1.9,1.4-2.8c0.5-0.9,0.9-1.9,1.4-2.8c0.3-0.6,0.6-1.3,1-1.9C7.1,7.2,7.5,7,8,7c1.8,0,3.6,0,5.4,0c0.5,0,1,0.2,1.2,0.8
		c0.2,0.5,0.1,0.9-0.3,1.3c-0.3,0.3-0.7,0.4-1.1,0.4c-1.3,0-2.5,0-3.8,0C9.2,9.5,9,9.5,8.9,9.8c-0.5,1.1-1.1,2.2-1.6,3.4
		c-0.4,0.9-0.9,1.8-1.3,2.6c-0.5,0.9-0.9,1.9-1.4,2.8c-0.3,0.6-0.5,1.3-0.9,1.8c-0.1,0.1-0.1,0.2,0.1,0.2c0.1,0,0.2,0,0.3,0
		c2.7,0,5.5,0,8.2,0c1.1,0,1.7,0.5,1.6,1.5c-0.1,0.8,0,1.6,0,2.5c0,0.3,0.1,0.3,0.3,0.3c3.2,0,6.4,0,9.7,0c0.3,0,0.4-0.1,0.4-0.3
		c0-0.9,0-1.7,0-2.6c0-0.9,0.6-1.4,1.5-1.4c3,0,6,0,8.9,0C34.9,20.6,35,20.6,35.2,20.6L35.2,20.6z M19.5,31.7c5.4,0,10.8,0,16.1,0
		c0.2,0,0.4,0,0.4-0.3c0-2.7,0-5.4,0-8c0-0.2,0-0.3-0.3-0.3c-2.7,0-5.5,0-8.2,0c-0.3,0-0.3,0.1-0.3,0.3c0,0.9,0,1.8,0,2.6
		c0,0.5-0.1,0.8-0.6,1.1c-0.3,0.2-0.7,0.3-1.1,0.3c-2.5,0-5.1,0-7.6,0c-1.8,0-3.6,0-5.4,0c-0.8,0-1.6-0.5-1.6-1.5
		c0.1-0.8,0-1.6,0-2.5c0-0.3-0.1-0.4-0.4-0.4c-2.4,0-4.9,0-7.3,0c-0.3,0-0.4,0.1-0.4,0.4c0,2.6,0,5.2,0,7.8c0,0.3,0.1,0.4,0.5,0.4
		C8.8,31.7,14.1,31.7,19.5,31.7L19.5,31.7z"/>
	<path id="Vector_2" class="st0" d="M20.6,15.1c0.5-0.2,0.8-0.6,1.1-0.9c0.6-0.4,1.1-0.9,1.6-1.4c0.4-0.3,1.2-0.4,1.7-0.1
		c0.4,0.2,0.8,0.8,0.7,1.2c-0.1,0.5-0.5,0.8-0.8,1.1c-0.6,0.5-1.1,0.9-1.7,1.4c-1,0.9-2,1.8-3.1,2.6c-0.7,0.6-1.5,0.4-2.2-0.2
		c-1.3-1.1-2.7-2.2-4-3.3c-0.4-0.3-0.8-0.6-1.2-1.1c-0.5-0.6-0.2-1.5,0.6-1.7c0.7-0.2,1.3-0.1,1.8,0.3c0.8,0.7,1.5,1.3,2.3,1.9
		c0,0,0.1,0.1,0.2,0.1v-0.4c0-4.1,0-8.3,0-12.4c0-0.8,0.3-1,0.9-1.3c0.5-0.2,1.3-0.1,1.7,0.4c0.2,0.3,0.3,0.6,0.3,0.9
		c0,4.1,0,8.3,0,12.4V15.1L20.6,15.1z"/>
</g>
</svg>
