<?xml version="1.0" encoding="utf-8"?>
<!-- Generator: Adobe Illustrator 24.0.0, SVG Export Plug-In . SVG Version: 6.00 Build 0)  -->
<svg version="1.1" id="Capa_1" xmlns="http://www.w3.org/2000/svg" xmlns:xlink="http://www.w3.org/1999/xlink" x="0px" y="0px"
	 viewBox="0 0 33 36" style="enable-background:new 0 0 33 36;" xml:space="preserve">
<style type="text/css">
	.st0{fill:#FFFFFF;}
</style>
<path class="st0" d="M29.5,5.5h-2.7V3.3c0-1.5-1.2-2.7-2.7-2.7H3.5C2,0.6,0.7,1.8,0.7,3.3v24.5c0,1.5,1.2,2.7,2.7,2.7h2.7v2.2
	c0,1.5,1.2,2.7,2.7,2.7h20.6c1.5,0,2.7-1.2,2.7-2.7V8.2C32.3,6.7,31,5.5,29.5,5.5z M8.3,22.9v-2.7h4.3v2.7H8.3z M19.2,10.4v2.7h-4.3
	v-2.7H19.2z M8.3,15.3h4.3V18H8.3V15.3z M14.9,15.3h4.3V18h-4.3V15.3z M12.7,13.1H8.3v-2.7h4.3V13.1z M14.9,20.2h4.3v1.3
	c-0.6,0.3-1.1,0.8-1.4,1.4h-2.9V20.2z M19.8,26.8V24c0-0.3,0.2-0.5,0.5-0.5h2.8C22.3,24.3,20.6,26,19.8,26.8z M2.9,27.8V3.3
	c0-0.3,0.2-0.5,0.5-0.5h20.6c0.3,0,0.5,0.2,0.5,0.5v17.9h-3.3v-12c0-0.6-0.5-1.1-1.1-1.1h-13c-0.6,0-1.1,0.5-1.1,1.1V24
	c0,0.6,0.5,1.1,1.1,1.1h10.3v3.3H3.5C3.2,28.3,2.9,28.1,2.9,27.8z M30.1,32.7c0,0.3-0.2,0.5-0.5,0.5H8.9c-0.3,0-0.5-0.2-0.5-0.5
	v-2.2h10.3c0.3,0,0.6-0.1,0.8-0.3l7.1-7.1c0.2-0.2,0.3-0.5,0.3-0.8V7.7h2.7c0.3,0,0.5,0.2,0.5,0.5V32.7z"/>
</svg>
