<svg id="Capa_1" data-name="Capa 1" xmlns="http://www.w3.org/2000/svg" viewBox="0 0 1775.13 1768.6"><defs><style>.cls-1{fill:#3f3f3f;}</style></defs><title>iconMenu</title><path class="cls-1" d="M750.8,1000c0-137,111-250.48,246.3-251.64,134.68-1.17,249,112.94,249.21,248.82.25,141.25-108.94,252.4-249.1,253.55C862.65,1251.8,750.82,1138,750.8,1000Z" transform="translate(-110.97 -115.7)"/><path class="cls-1" d="M363,115.9c136.29-.55,251,112.66,250.71,247.43-.31,135.85-113,248.61-249.11,249.36C225.75,613.46,109.9,499.17,111,362.56,112.16,227.8,225.88,116.46,363,115.9Z" transform="translate(-110.97 -115.7)"/><path class="cls-1" d="M1633.78,1883.57c-134.46,4.38-246-105-250.6-246.86-4.42-136.78,113.78-249,254-248.66,135.81.37,253.28,115.24,248.06,249.52C1879.71,1780.34,1767.64,1888.36,1633.78,1883.57Z" transform="translate(-110.97 -115.7)"/><path class="cls-1" d="M362.59,1388.07c138.61,0,252.93,107.47,250.38,246.32-2.67,145.59-117.12,253-253,249.84-135.69-3.19-250.39-115.51-249-249.61C112.42,1499.21,225.84,1388.07,362.59,1388.07Z" transform="translate(-110.97 -115.7)"/><path class="cls-1" d="M1631.8,612.67c-135.46-.87-250.2-115.64-249.53-249.59.69-136.18,118-249,256.89-247.17,133.16,1.78,246,114.62,246.93,246.91C1887,499,1770.41,613.55,1631.8,612.67Z" transform="translate(-110.97 -115.7)"/><path class="cls-1" d="M1633.61,748.34c131.9-.38,249.73,116.1,252.43,249.56,2.68,132.31-120.57,255.05-253.77,252.74-134.11-2.34-251.49-120.47-249.94-251.54C1383.9,866.19,1501.61,748.72,1633.61,748.34Z" transform="translate(-110.97 -115.7)"/><path class="cls-1" d="M999.59,1387.94c138.42.34,246.94,109.21,246.82,247.64-.12,141.32-109,248.77-251.5,248.1-137.78-.65-244.35-109.81-244.25-250.2C750.76,1495.74,860.39,1387.6,999.59,1387.94Z" transform="translate(-110.97 -115.7)"/><path class="cls-1" d="M362.11,748.31c133.31-.74,253.85,121.46,251.57,255.05-2.25,131.61-116.8,245.92-248.1,247.56C231.3,1252.59,110,1132.51,111.08,999,112.15,866,229.24,749.05,362.11,748.31Z" transform="translate(-110.97 -115.7)"/><path class="cls-1" d="M750.64,361c.42-137.6,110.24-245.52,249.58-245.28,137,.25,246.3,111,246.2,249.26-.09,137.38-110.24,247.83-247.23,247.9C859.15,612.92,750.2,502.52,750.64,361Z" transform="translate(-110.97 -115.7)"/></svg>