<svg id="Capa_1" data-name="Capa 1" xmlns="http://www.w3.org/2000/svg" viewBox="0 0 1775.14 1768.58"><defs><style>.cls-1{fill:#38adce;}</style></defs><title>iconMenuHover</title><path class="cls-1" d="M752.27,1000c0-137,111-250.48,246.3-251.64,134.68-1.17,249,112.94,249.21,248.82.25,141.25-108.94,252.4-249.1,253.55C864.12,1251.79,752.29,1138,752.27,1000Z" transform="translate(-112.43 -115.71)"/><path class="cls-1" d="M364.47,115.89c136.29-.55,251,112.66,250.71,247.43-.31,135.85-113,248.61-249.11,249.36-138.85.77-254.7-113.52-253.6-250.13C113.63,227.79,227.35,116.45,364.47,115.89Z" transform="translate(-112.43 -115.71)"/><path class="cls-1" d="M1635.25,1883.56c-134.46,4.38-246-105-250.6-246.86-4.42-136.78,113.78-249,254-248.66,135.81.37,253.28,115.24,248.06,249.52C1881.18,1780.33,1769.11,1888.35,1635.25,1883.56Z" transform="translate(-112.43 -115.71)"/><path class="cls-1" d="M364.06,1388.06c138.61,0,252.93,107.47,250.38,246.32-2.67,145.59-117.12,253-253,249.84-135.69-3.19-250.39-115.51-249-249.61C113.89,1499.2,227.31,1388.06,364.06,1388.06Z" transform="translate(-112.43 -115.71)"/><path class="cls-1" d="M1633.27,612.66c-135.46-.87-250.2-115.64-249.53-249.59.69-136.18,118-249,256.89-247.17,133.16,1.78,246,114.62,246.93,246.91C1888.47,499,1771.88,613.54,1633.27,612.66Z" transform="translate(-112.43 -115.71)"/><path class="cls-1" d="M1635.08,748.33c131.9-.38,249.73,116.1,252.43,249.56,2.68,132.31-120.57,255.05-253.77,252.74-134.11-2.34-251.49-120.47-249.94-251.54C1385.37,866.18,1503.08,748.71,1635.08,748.33Z" transform="translate(-112.43 -115.71)"/><path class="cls-1" d="M1001.06,1387.93c138.42.34,246.94,109.21,246.82,247.64-.12,141.32-109,248.77-251.5,248.1C858.6,1883,752,1773.86,752.13,1633.47,752.23,1495.73,861.86,1387.59,1001.06,1387.93Z" transform="translate(-112.43 -115.71)"/><path class="cls-1" d="M363.58,748.3c133.31-.74,253.85,121.46,251.57,255.05-2.25,131.61-116.8,245.92-248.1,247.56C232.77,1252.58,111.47,1132.5,112.55,999,113.62,866,230.71,749,363.58,748.3Z" transform="translate(-112.43 -115.71)"/><path class="cls-1" d="M752.11,361c.42-137.6,110.24-245.52,249.58-245.28,137,.25,246.3,111,246.2,249.26-.09,137.38-110.24,247.83-247.23,247.9C860.62,612.91,751.67,502.51,752.11,361Z" transform="translate(-112.43 -115.71)"/></svg>