<?xml version="1.0" encoding="utf-8"?>
<!-- Generator: Adobe Illustrator 24.0.0, SVG Export Plug-In . SVG Version: 6.00 Build 0)  -->
<svg version="1.1" id="Capa_1" xmlns="http://www.w3.org/2000/svg" xmlns:xlink="http://www.w3.org/1999/xlink" x="0px" y="0px"
	 viewBox="0 0 25 28" style="enable-background:new 0 0 25 28;" xml:space="preserve">
<style type="text/css">
	.st0{fill:#FFFFFF;}
</style>
<path id="Vector" class="st0" d="M25,5.6c-0.1-1.3-0.5-2.7-1.2-4.1c-0.1-0.3-0.3-0.3-0.6-0.3c-1.4,0.4-2.6,1-3.5,1.9
	c-1.3,1.2-1.9,2.7-1.7,4.5c0,0.2,0,0.4,0.1,0.6c0,0,0,0.1,0,0.1c0,0,0,0,0,0C18,8.1,17.9,8,17.8,7.9c-0.2-0.2-0.5-0.4-0.7-0.6
	c-0.3-0.2-0.6-0.5-0.8-0.8c-0.2-0.3-0.4-0.6-0.6-1c-0.2-0.3-0.3-0.6-0.5-0.8c-0.2-0.3-0.4-0.6-0.5-0.8c-0.2-0.3-0.4-0.3-0.6-0.1
	C14,3.9,13.9,3.9,13.9,4c0,0.1,0,0.3,0.1,0.4c0,0,0,0,0,0.1c0,0,0,0,0,0.1c0.4,0.6,0.8,1.2,1.1,1.8l-0.7-0.1
	c-0.8-0.2-1.7-0.3-2.5-0.5c-0.1,0-0.1-0.1-0.1-0.1c0,0,0,0,0-0.1c-1-1.5-1.9-2.8-2.9-4.2c0,0,0,0,0,0c0,0,0-0.1-0.1-0.1
	c0.5,0,1,0.1,1.6,0.3c0.7,0.3,1.3,0.7,2,1.3c0.2,0.2,0.4,0.2,0.6,0c0.1-0.1,0.1-0.2,0.1-0.3c0-0.1-0.1-0.2-0.2-0.3
	c-1.7-1.5-3.5-2.1-5.5-1.7c-2,0.4-3.9,1.4-5.9,3.3C1.6,3.9,1.5,4.1,1.6,4.3c0.9,1.9,1.9,3.3,3.2,4.5C4.9,8.9,4.9,8.9,4.9,9
	c0,0,0,0.1-0.1,0.2C2.6,11.3,1.7,14,2.1,17c0.4,3.3,2.1,5.8,5.1,7.2c0.4,0.2,0.6,0,0.6-0.2c0.1-0.1,0.1-0.2,0-0.3
	c0-0.1-0.1-0.2-0.3-0.3C7,23.2,6.6,23,6.2,22.7c-0.1-0.1-0.1-0.2-0.1-0.3c0.1-0.9,0-1.7-0.4-2.3c-0.3-0.5-0.3-0.9,0-1.5
	c0-0.1,0.1-0.2,0.1-0.3c0,0,0-0.1,0.1-0.1L5.9,18c0.2-0.4,0.4-0.8,0.5-1.2c0.2-0.6-0.1-1.1-0.6-1.4c-0.3-0.1-0.5-0.2-0.7-0.3
	c-0.3-0.1-0.6-0.3-0.7-0.6c-0.1-0.1-0.1-0.3-0.2-0.4c-0.2-0.4-0.4-0.8-0.6-1.2c-0.1-0.1-0.1-0.2,0-0.3c0.5-1.1,1.2-2.1,2-2.9
	c0.1-0.1,0.2-0.1,0.3,0c0.7,0.5,1.5,0.9,2.4,1c0.1,0,0.1,0,0.2,0c0.1,0,0.2,0,0.2,0c0,0,0,0,0,0c0,0-0.1,0.1-0.1,0.1
	c-0.7,0.6-1,1.3-1.1,2.1c-0.1,0.7,0.1,1.4,0.5,1.9c0.4,0.5,1,0.8,1.6,0.9c0.5,0,1-0.1,1.5-0.1c0.1,0,0.2,0,0.2,0
	c0.4-0.1,0.5-0.1,0.6,0c0.1,0.1,0.1,0.3,0.2,0.7c0,0.6,0,1.2,0,1.7c0,0.4,0,0.7,0,1.1c0,0.5,0,1,0.2,1.4c0.1,0.4,0.4,0.7,0.7,0.9
	c0.3,0.1,0.6,0.2,1,0c1.2-0.4,2-1.4,2.4-2.7c0.1-0.3,0-0.7,0-1c0-0.1,0-0.3-0.1-0.4l0-0.1c0-0.6-0.1-1.1,0.2-1.5
	c0.4-0.6,1-1,1.6-1.3l0,0c0.2,1,0.2,2.1,0,3.2c-0.6,3.7-3.6,6.6-7.1,6.7c-0.4,0-0.7,0-1.2,0c-0.2,0-0.3,0.1-0.4,0.2
	c-0.1,0.1-0.1,0.3,0,0.4c0.1,0.2,0.3,0.3,0.4,0.3c0.7,0,1.3,0,1.9,0c1.9-0.2,3.7-1.2,5-2.7c1.4-1.5,2.2-3.4,2.3-5.4
	c0.3-3.4-1-6.2-3.6-8.3c0,0,0,0-0.1,0c0,0-0.1,0-0.1-0.1c0.1-0.1,0.1-0.1,0.2-0.2c0.2-0.2,0.4-0.3,0.6-0.5c0.1-0.1,0.2-0.1,0.4,0
	c3.1,2.7,4.3,6.1,3.6,10.2c-0.5,2.9-2.1,5.4-4.6,6.9c-2.4,1.5-5.4,1.8-8,0.9C2.9,24,0.3,19.3,1,14.3c0-0.3-0.1-0.5-0.3-0.6
	c-0.3,0-0.4,0.1-0.5,0.4C-0.1,15.4,0,16.7,0.2,18C0.5,19.5,1,21,1.8,22.2c0.8,1.2,1.8,2.2,3,3.1c1.2,0.8,2.5,1.4,3.8,1.6
	c0.6,0.1,1.2,0.2,1.8,0.2c0.8,0,1.6-0.1,2.4-0.3c3-0.8,5.5-2.9,6.9-5.8c1.4-2.9,1.5-6.3,0.4-9.4c0-0.1,0-0.1,0-0.2
	c0,0,0.1-0.1,0.1-0.1c1.2-0.4,2.2-1,3-1.7C24.5,8.6,25.1,7.2,25,5.6z M23.9,5.7c-0.5,0.2-1,0.4-1.5,0.6c-0.2,0.1-0.3,0.2-0.5,0.2
	l1.5-3.9c0.3,0.7,0.5,1.4,0.6,2.2c0,0.1,0,0.1,0,0.2c0,0.1,0,0.2,0,0.3C24.2,5.5,24.1,5.6,23.9,5.7z M20.4,10.4
	C20.4,10.3,20.4,10.3,20.4,10.4c0.3-0.8,0.6-1.5,0.9-2.3l0-0.1c0,0,0,0,0,0c0-0.1,0.1-0.2,0.1-0.2c0.7-0.3,1.3-0.6,2-0.9l0.6-0.3
	c-0.1,0.5-0.2,1-0.5,1.4C23,9.1,21.5,10,20.4,10.4C20.4,10.4,20.4,10.4,20.4,10.4z M21,6.4l-0.2-0.5c-0.3-0.7-0.5-1.3-0.8-2
	c0-0.1,0-0.1,0-0.1c0.7-0.6,1.5-1.1,2.5-1.5L21,6.4z M19.5,4.7l0.2,0.5C20,6,20.3,6.7,20.6,7.5c0,0.1,0,0.1,0,0.2
	c-0.2,0.5-0.4,1-0.6,1.5c-0.1,0.3-0.3,0.7-0.4,1C18.8,8.3,18.5,5.9,19.5,4.7z M5.1,17.9c-0.2,0.3-0.3,0.7-0.4,1.1
	c-0.1,0.4-0.1,0.8,0.1,1.2c0.3,0.6,0.5,1.2,0.5,1.7c-2-1.8-2.9-5.2-2.2-8.1c0,0.1,0.1,0.2,0.1,0.3c0.1,0.3,0.3,0.6,0.4,0.8
	c0.3,0.6,0.7,0.9,1.2,1.1C5,16,5.2,16,5.3,16.1c0.3,0.1,0.3,0.2,0.2,0.5c-0.1,0.3-0.2,0.6-0.4,0.9l-0.1,0.1
	C5.1,17.7,5.1,17.8,5.1,17.9L5.1,17.9z M15.3,17.2c0,0.1,0,0.2,0,0.3c0,0.1,0,0.1,0,0.2c0.2,1.1-0.7,2.5-1.8,2.8
	c-0.3,0.1-0.5,0-0.6-0.4c-0.1-0.4-0.1-0.8-0.1-1.2c0-0.3,0-0.5,0-0.8c0-0.1,0-0.2,0-0.3c0-0.1,0-0.3,0-0.4c0-0.6,0-1.2-0.1-1.8
	c0-0.2-0.1-0.4-0.2-0.5c-0.2-0.4-0.5-0.6-0.9-0.6c0,0-0.1,0-0.1,0c-0.3,0-0.5,0.1-0.8,0.1c-0.2,0-0.4,0.1-0.5,0.1
	c-0.2,0-0.4,0.1-0.7,0.1c0,0,0,0,0,0c-0.5,0-0.9-0.2-1.2-0.6c-0.3-0.4-0.3-0.9-0.2-1.5c0.2-0.7,0.7-1.2,1.1-1.5
	c0.1-0.1,0.3-0.2,0.4-0.3c0.1-0.1,0.2-0.1,0.3-0.2c0,0,0.1-0.1,0.1-0.1c1.3-0.2,2.7-0.7,4.1-1.7c0.1-0.1,0.2-0.1,0.4,0
	c1.4,1,2.5,2.4,3.1,4.1c0.1,0.2,0,0.2-0.1,0.3c-0.3,0.1-0.5,0.3-0.8,0.5c-0.1,0-0.1,0.1-0.2,0.1C15.6,14.8,15.1,15.8,15.3,17.2z
	 M8,9.6C8.1,9.6,8.1,9.6,8,9.6c0.5-0.4,0.9-0.7,1.3-1c0.8-0.6,1.6-1.3,2.4-1.9c0.1-0.1,0.2-0.1,0.3-0.1C12.7,6.8,13.4,6.9,14,7
	c0.3,0.1,0.7,0.1,1,0.2c0,0,0.1,0,0.1,0c-0.6,0.5-1.2,0.9-1.8,1.3C12.1,9.3,11,9.7,9.9,9.8C9.4,9.9,8.4,9.9,8,9.6C8,9.7,8,9.6,8,9.6
	z M2.9,3.8c0.7-0.6,1.5-1.1,2.3-1.6c0.1,0,0.1,0,0.1,0c0.4,0.6,0.9,1.3,1.3,1.9l0.3,0.4L2.9,3.8z M7.9,1.3c0.1,0,0.1,0,0.2,0.1
	c0.7,1,1.4,2,2,2.9c0.3,0.4,0.5,0.7,0.8,1.1c0,0,0,0,0,0l-0.3-0.1c-0.3-0.1-0.6-0.1-0.9-0.2c-0.2,0-0.4-0.1-0.6-0.1
	C8.8,5.1,8.6,5,8.3,5c-0.1,0-0.2-0.1-0.3-0.2C7.4,3.9,6.8,2.9,6.1,2c0,0-0.1-0.1-0.1-0.1c0,0,0,0,0.1-0.1C6.7,1.6,7.3,1.4,7.9,1.3
	C7.9,1.3,7.9,1.3,7.9,1.3z M5.7,7.5C6.4,7,7.1,6.4,7.8,5.8C7.9,5.8,7.9,5.8,8,5.8L9,6c0.6,0.1,1.2,0.3,1.8,0.4c0,0,0,0,0,0L10,7
	C9.7,7.2,9.5,7.4,9.3,7.6C8.6,8.1,7.9,8.7,7.2,9.2C7.1,9.3,7,9.3,6.9,9.2C6.2,8.9,5.7,8.5,5.2,7.9L5.7,7.5z M6.8,5.5L6.4,5.9
	C5.8,6.3,5.2,6.8,4.6,7.2c-0.1,0.1-0.1,0.1-0.1,0C3.8,6.3,3.2,5.5,2.8,4.7L6.8,5.5z"/>
</svg>
