<svg id="Capa_1" data-name="Capa 1" xmlns="http://www.w3.org/2000/svg" xmlns:xlink="http://www.w3.org/1999/xlink" viewBox="0 0 27.85 28.08"><defs><style>.cls-1{fill:#fff;}.cls-1,.cls-2,.cls-5,.cls-7{stroke:#fff;}.cls-2{fill:none;}.cls-3{mask:url(#mask);}.cls-4{mask:url(#mask-2);}.cls-5{fill:#41bae9;}.cls-6{mask:url(#mask-3);}.cls-7{fill:#97c240;}</style><mask id="mask" x="9.72" y="11.98" width="15.37" height="15.12" maskUnits="userSpaceOnUse"><g transform="translate(0 0)"><g id="mask0_3251_31068" data-name="mask0 3251 31068"><g id="clippath"><path id="Vector_2" data-name="Vector 2" class="cls-1" d="M10.13,26.81l.3-.41a.29.29,0,0,1-.11-.11s-.06-.09-.08-.27,0-.43,0-.82V13.78c0-.39,0-.64,0-.82a.53.53,0,0,1,.08-.28.38.38,0,0,1,.11-.11.59.59,0,0,1,.27-.07c.19,0,.43,0,.82,0H23.29c.38,0,.63,0,.82,0a.59.59,0,0,1,.27.07.57.57,0,0,1,.11.11.66.66,0,0,1,.08.28c0,.18,0,.43,0,.82V25.2c0,.39,0,.64,0,.82a.54.54,0,0,1-.08.27.38.38,0,0,1-.11.11s-.09.06-.27.08-.44,0-.82,0H11.52c-.39,0-.63,0-.82,0s-.24-.05-.27-.08Z"/></g></g></g></mask><mask id="mask-2" x="16.85" y="12.58" width="11" height="14.56" maskUnits="userSpaceOnUse"><g transform="translate(0 0)"><g id="mask1_3251_31068" data-name="mask1 3251 31068"><g id="clippath-1"><path id="Vector_3" data-name="Vector 3" class="cls-1" d="M17.26,26.84l.3-.4a.57.57,0,0,1-.11-.11s-.06-.09-.08-.27,0-.44,0-.82V14.38c0-.39,0-.64,0-.83a.48.48,0,0,1,.08-.27l.11-.11a.59.59,0,0,1,.27-.07c.19,0,.44,0,.82,0h7.4c.39,0,.63,0,.82,0a.59.59,0,0,1,.27.07.38.38,0,0,1,.11.11.48.48,0,0,1,.08.27c0,.19,0,.44,0,.83V25.24c0,.38,0,.63,0,.82s0,.24-.08.27a.38.38,0,0,1-.11.11.48.48,0,0,1-.27.07,5.83,5.83,0,0,1-.82,0h-7.4a5.9,5.9,0,0,1-.82,0,.48.48,0,0,1-.27-.07Z"/></g></g></g></mask><mask id="mask-3" x="9.76" y="17.07" width="15.45" height="11.11" maskUnits="userSpaceOnUse"><g transform="translate(0 0)"><g id="mask2_3251_31068" data-name="mask2 3251 31068"><g id="clippath-2"><path id="Vector_5" data-name="Vector 5" class="cls-1" d="M10.18,27.89l.3-.41a.41.41,0,0,1-.12-.11.59.59,0,0,1-.07-.27c0-.18,0-.43,0-.82V18.87c0-.38,0-.63,0-.82a.59.59,0,0,1,.07-.27.63.63,0,0,1,.12-.11.48.48,0,0,1,.27-.07,5.75,5.75,0,0,1,.82,0H23.39a6,6,0,0,1,.83,0,.52.52,0,0,1,.27.07.57.57,0,0,1,.11.11.59.59,0,0,1,.07.27c0,.19,0,.44,0,.82v7.41c0,.39,0,.64,0,.82a.59.59,0,0,1-.07.27.38.38,0,0,1-.11.11.48.48,0,0,1-.27.08c-.19,0-.44,0-.83,0H11.57c-.39,0-.64,0-.82,0s-.24,0-.27-.08Z"/></g></g></g></mask></defs><title>inicioWhite</title><g id="Group_33908" data-name="Group 33908"><path id="Vector" class="cls-2" d="M26.22,9.66h0a.71.71,0,0,1,.15,1h0l-.63.87h0a.72.72,0,0,1-.6.28l-.53,0v14a.7.7,0,0,1-.7.7H3.1a.7.7,0,0,1-.7-.7v-14l-.53,0H1.73a.65.65,0,0,1-.46-.27l-.64-.87h0a.71.71,0,0,1,.15-1L5.52,6.19h0a.18.18,0,0,1,.25,0,.17.17,0,0,1,0,.24h0L1.12,9.86l-.4.29.29.4.46.62.29.41.4-.3L13.4,3h0a.15.15,0,0,1,.2,0h0l11.24,8.24.4.3.29-.41.46-.61.29-.41-.4-.29L13.8,1,13.5.77,13.2,1,9.13,4h0a.19.19,0,0,1-.25,0,.18.18,0,0,1,0-.25h0l4.16-3h0a.69.69,0,0,1,.84,0h0l3.7,2.71.79.59V2.26a.7.7,0,0,1,.7-.7h2.67a.7.7,0,0,1,.7.7V6.92l.2.15ZM19.27,1.91h-.5V4.2l.2.15,2.36,1.73.79.58V1.91H19.27Z" transform="translate(0 0)"/><g id="Clip_path_group" data-name="Clip path group"><g class="cls-3"><g id="Group"><g id="Group_2" data-name="Group 2"><g id="Clip_path_group_2" data-name="Clip path group_2"><g class="cls-4"><g id="Group_3" data-name="Group 3"><path id="Vector_4" data-name="Vector 4" class="cls-5" d="M17.37,19.37c-.12-1.68.48-3.74,2.43-6.21h0a13.45,13.45,0,0,1,6,3.32,5.54,5.54,0,0,1,1.49,4c-.05,1.61-.74,3.62-2.54,6.1l-.29-.06a9.5,9.5,0,0,1-1.41-.5,12.42,12.42,0,0,1-3.66-2.41A6.49,6.49,0,0,1,17.37,19.37Zm7.3,7.33Z" transform="translate(0 0)"/></g></g></g></g><g id="Group_4" data-name="Group 4"><g id="Clip_path_group_3" data-name="Clip path group_3"><g class="cls-6"><g id="Group_5" data-name="Group 5"><path id="Vector_6" data-name="Vector 6" class="cls-7" d="M13.34,25.31a10.72,10.72,0,0,1-3-6.62,13.72,13.72,0,0,1,7.15-1,7.6,7.6,0,0,1,4.28,2.38,13.39,13.39,0,0,1,2.91,6.55l-.21.09a9.89,9.89,0,0,1-1.46.46,13.76,13.76,0,0,1-4.7.28A8.66,8.66,0,0,1,13.34,25.31Z" transform="translate(0 0)"/></g></g></g></g></g></g></g></g></svg>