<svg width="23" height="22" viewBox="0 0 23 22" fill="none" xmlns="http://www.w3.org/2000/svg">
<g clip-path="url(#clip0_1550_26196)">
<path d="M22.2422 3.35762C22.0863 3.74321 21.8047 3.89484 21.3844 3.88618C20.219 3.86885 19.0492 3.88618 17.8838 3.87751C17.7149 3.87751 17.6412 3.91217 17.5892 4.0898C17.2166 5.44151 15.9299 6.40331 14.5219 6.39898C13.1095 6.39898 11.8314 5.44151 11.4545 4.0898C11.4069 3.91217 11.3246 3.87751 11.1599 3.87751C7.7893 3.88184 4.41868 3.87751 1.04373 3.88184C0.714471 3.88184 0.450193 3.78653 0.302891 3.47893C0.107933 3.07168 0.363545 2.59945 0.818449 2.51713C0.909429 2.4998 1.00474 2.50414 1.09572 2.50414C4.44468 2.50414 7.79363 2.50414 11.1469 2.50414C11.3375 2.50414 11.4025 2.44781 11.4632 2.26585C11.8618 1.05711 12.6936 0.320599 13.937 0.0433241C13.9847 0.0346593 14.041 0.0433241 14.0756 0C14.3659 0.00433241 14.6518 0.00433241 14.9378 0.00433241C14.9638 0.0129972 14.9898 0.0303269 15.0158 0.0346593C16.3502 0.290272 17.2166 1.06577 17.6066 2.3655C17.6499 2.5128 17.7365 2.50414 17.8492 2.50414C19.0103 2.50414 20.167 2.51713 21.3281 2.49547C21.7527 2.49114 22.0646 2.61678 22.2422 3.01103V3.35329V3.35762ZM14.5349 1.37338C13.5211 1.37338 12.7023 2.18354 12.7023 3.19299C12.7023 4.20244 13.5254 5.0256 14.5262 5.0256C15.5183 5.0256 16.3458 4.20244 16.3502 3.21032C16.3588 2.2052 15.54 1.37771 14.5305 1.37338H14.5349Z" fill="#697A8D"/>
<path d="M22.2422 18.9934C22.0602 19.3877 21.7483 19.5133 21.328 19.509C20.1756 19.4916 19.0232 19.509 17.8708 19.5003C17.7105 19.5003 17.6412 19.5393 17.5935 19.7039C17.2209 21.0513 15.9602 22.0001 14.5695 22.0001C13.0965 22.0001 11.8487 21.0816 11.4588 19.6996C11.4155 19.5393 11.3462 19.496 11.1815 19.496C7.80225 19.5003 4.42297 19.5003 1.04369 19.496C0.636438 19.496 0.376493 19.327 0.276848 19.0021C0.146875 18.5862 0.437147 18.1529 0.874721 18.1226C0.961369 18.1183 1.04802 18.1226 1.13033 18.1226C4.47496 18.1226 7.81525 18.1226 11.1599 18.1269C11.3462 18.1269 11.4112 18.0706 11.4588 17.8973C11.8357 16.5586 13.1181 15.6055 14.5218 15.6055C15.9299 15.6055 17.2166 16.5673 17.5892 17.9146C17.6368 18.0923 17.7148 18.1269 17.8794 18.1269C19.0405 18.1183 20.1973 18.1356 21.3584 18.1183C21.783 18.1096 22.0776 18.2526 22.2379 18.6468V18.9891L22.2422 18.9934ZM14.5348 20.6311C15.5356 20.6311 16.3501 19.8122 16.3544 18.8158C16.3544 17.815 15.5269 16.9788 14.5305 16.9788C13.5254 16.9788 12.7065 17.802 12.7065 18.8115C12.7065 19.8209 13.5254 20.6311 14.5392 20.6311H14.5348Z" fill="#697A8D"/>
<path d="M22.2421 11.1777C22.0732 11.5676 21.7786 11.7019 21.354 11.6976C18.0094 11.6889 14.6647 11.6976 11.3201 11.6889C11.1382 11.6889 11.0688 11.7409 11.0212 11.9142C10.6399 13.2573 9.37052 14.2017 7.95816 14.2017C6.54146 14.2017 5.2634 13.2443 4.89081 11.8925C4.84748 11.7279 4.7825 11.6846 4.61787 11.6846C3.40046 11.6933 2.18305 11.6933 0.96564 11.6846C0.432753 11.6846 0.0904927 11.1907 0.298449 10.7271C0.428421 10.4369 0.671036 10.3112 0.987303 10.3112C2.19605 10.3112 3.40912 10.3112 4.61787 10.3155C4.7825 10.3155 4.84315 10.2679 4.88648 10.1076C5.25906 8.75588 6.53713 7.79842 7.95816 7.80275C9.37486 7.80275 10.6399 8.74288 11.0212 10.0903C11.0688 10.2636 11.1382 10.3199 11.3201 10.3199C14.6647 10.3155 18.0094 10.3199 21.354 10.3112C21.7742 10.3112 22.0732 10.4412 22.2421 10.8311V11.1734V11.1777ZM7.96249 12.8284C8.97194 12.8284 9.78644 12.0095 9.78644 11.0001C9.78644 9.99928 8.98061 9.18912 7.97549 9.18479C6.97037 9.17612 6.13854 9.99495 6.13854 11.0001C6.13854 12.0052 6.95737 12.8284 7.96682 12.8284H7.96249Z" fill="#697A8D"/>
</g>
<defs>
<clipPath id="clip0_1550_26196">
<rect width="22" height="22" fill="white" transform="translate(0.242188 0.00390625)"/>
</clipPath>
</defs>
</svg>
