<?xml version="1.0" encoding="utf-8"?>
<!-- Generator: Adobe Illustrator 24.0.0, SVG Export Plug-In . SVG Version: 6.00 Build 0)  -->
<svg version="1.1" id="Capa_1" xmlns="http://www.w3.org/2000/svg" xmlns:xlink="http://www.w3.org/1999/xlink" x="0px" y="0px"
	 viewBox="0 0 30 27" style="enable-background:new 0 0 30 27;" xml:space="preserve">
<style type="text/css">
	.st0{fill:none;stroke:#FFFFFF;stroke-width:2;stroke-linejoin:round;}
	.st1{fill:none;stroke:#FFFFFF;stroke-width:2;stroke-linecap:round;stroke-linejoin:round;}
</style>
<g id="Group_33856">
	<path id="Vector" class="st0" d="M9.3,18.3V1l1.9,1l1.9-1l1.9,1L17,1l1.9,1l1.9-1l1.9,1l1.9-1l1.9,1l1.9-1v13.5"/>
	<path id="Vector_2" class="st0" d="M28.5,14.5v6.7c0,1.3-0.5,2.5-1.4,3.4C26.2,25.5,25,26,23.7,26 M23.7,26c-1.3,0-2.5-0.5-3.4-1.4
		s-1.4-2.1-1.4-3.4v-2.9H2.6c-0.1,0-0.3,0-0.4,0.1c-0.1,0-0.2,0.1-0.3,0.2c-0.1,0.1-0.2,0.2-0.2,0.3c0,0.1-0.1,0.2-0.1,0.4
		C1.6,23.1,2,26,6.4,26H23.7z"/>
	<path id="Vector_3" class="st1" d="M13.2,6.8h11.5 M17,11.6h7.7"/>
</g>
</svg>
