<?xml version="1.0" encoding="utf-8"?>
<!-- Generator: Adobe Illustrator 24.0.0, SVG Export Plug-In . SVG Version: 6.00 Build 0)  -->
<svg version="1.1" id="Capa_1" xmlns="http://www.w3.org/2000/svg" xmlns:xlink="http://www.w3.org/1999/xlink" x="0px" y="0px"
	 viewBox="0 0 36 37" style="enable-background:new 0 0 36 37;" xml:space="preserve">
<style type="text/css">
	.st0{fill:none;stroke:#41BAEA;stroke-width:2;stroke-linecap:round;stroke-linejoin:round;}
	.st1{fill:#41BAEA;}
</style>
<path class="st0" d="M28.9,15.8v16c0,0.5-0.1,0.9-0.3,1.3c-0.2,0.4-0.4,0.8-0.8,1.1c-0.3,0.3-0.7,0.6-1.1,0.8
	c-0.4,0.2-0.9,0.3-1.3,0.3H4.6c-0.9,0-1.8-0.4-2.5-1c-0.7-0.7-1-1.5-1-2.5V10.9c0-0.9,0.4-1.8,1-2.5c0.7-0.7,1.5-1,2.5-1h14.6"/>
<path class="st1" d="M35.5,1c-0.1-0.1-0.3-0.3-0.5-0.3c-0.2-0.1-0.4-0.1-0.5-0.1c-0.2,0-0.4,0-0.6,0.1s-0.3,0.2-0.5,0.3L32.4,2
	c-0.1,0.1-0.2,0.3-0.2,0.5c0,0.2,0.1,0.4,0.2,0.5l1,1c0.1,0.1,0.1,0.1,0.2,0.2c0.1,0,0.2,0.1,0.3,0.1s0.2,0,0.3-0.1
	c0.1,0,0.2-0.1,0.2-0.2l1-1C36,2.4,36,1.5,35.5,1z M30.3,4.2L14.6,19.8c-0.1,0.1-0.2,0.2-0.2,0.3l-0.7,2.2c0,0.1,0,0.1,0,0.2
	c0,0.1,0,0.1,0.1,0.2c0,0,0.1,0.1,0.2,0.1c0.1,0,0.1,0,0.2,0l2.2-0.7c0.1,0,0.2-0.1,0.3-0.2L32.2,6.1c0.1-0.1,0.2-0.3,0.2-0.6
	c0-0.2-0.1-0.4-0.2-0.6l-0.9-0.9C31.2,4,31,3.9,30.8,3.9C30.6,3.9,30.4,4,30.3,4.2z"/>
</svg>
