<?xml version="1.0" encoding="utf-8"?>
<!-- Generator: Adobe Illustrator 24.0.0, SVG Export Plug-In . SVG Version: 6.00 Build 0)  -->
<svg version="1.1" id="Capa_1" xmlns="http://www.w3.org/2000/svg" xmlns:xlink="http://www.w3.org/1999/xlink" x="0px" y="0px"
	 viewBox="0 0 27 34" style="enable-background:new 0 0 27 34;" xml:space="preserve">
<style type="text/css">
	.st0{fill:#41BAEA;}
</style>
<g id="Group_33879">
	<path id="Vector" class="st0" d="M21.8,11.3c-0.2,0-0.4,0-0.5,0h0c-2.9,0-5.9,0-8.8,0H12c-0.2,0-0.2,0-0.2-0.2
		c0-0.7-0.4-1.3-1.1-1.7C10.1,9,9.3,8.9,8.6,9.1c-1.1,0.3-1.7,1.1-1.7,2.1c0,0,0,0,0,0c0,0,0,0,0,0c-0.5,0-1,0-1.4,0
		c-0.6,0-1,0.4-1,0.9c0,0.5,0.4,0.8,1,0.8c0.5,0,0.9,0,1.4,0c0,0.5,0.1,1,0.5,1.4c0.5,0.6,1.2,0.9,1.9,0.9c0.3,0,0.5,0,0.8-0.1
		c1-0.3,1.6-1.1,1.6-2.1c0,0,0-0.1,0-0.1c0,0,0,0,0.1,0c1.2,0,2.4,0,3.6,0c0.3,0,0.6,0,0.9,0v0h5c0.1,0,0.2,0,0.3,0
		c0.5,0,0.8-0.4,0.8-0.8C22.6,11.7,22.3,11.4,21.8,11.3L21.8,11.3z M8.8,13c0-0.2,0-0.4,0-0.6c0-0.1,0-0.2,0-0.3c0-0.1,0-0.2,0-0.3
		c0-0.2,0-0.4,0-0.6c0-0.3,0.2-0.5,0.5-0.5c0,0,0,0,0,0c0.3,0,0.5,0.2,0.5,0.5c0,0.6,0,1.2,0,1.8c0,0.3-0.3,0.5-0.6,0.5
		C9,13.5,8.8,13.2,8.8,13L8.8,13z"/>
	<path id="Vector_2" class="st0" d="M15.7,16.6c-0.5-1.1-1.6-1.7-2.7-1.4c-1.2,0.3-1.9,1.3-1.9,2.5c0,0.1,0,0.1,0,0.1
		c0,0-0.1,0-0.1,0c-1.3,0-2.5,0-3.8,0c-0.5,0-1,0-1.5,0c-0.2,0-0.4,0-0.5,0.1c-0.4,0.1-0.7,0.5-0.7,1c0,0.5,0.3,0.8,0.8,0.9
		c0.1,0,0.3,0,0.4,0h0c1.7,0,3.4,0,5.2,0c0.2,0,0.2,0.1,0.3,0.3c0,0.7,0.3,1.4,0.9,1.8c0.4,0.4,1,0.6,1.5,0.6c0.1,0,0.2,0,0.3,0
		c1.3-0.2,2.2-1.2,2.2-2.6c0-0.1,0-0.1,0-0.1c0,0,0.1,0,0.1,0c0.6,0,1.3,0,1.9,0c0.2,0,0.4,0,0.6,0h1.2c0.2,0,0.4,0,0.6,0
		c0.4,0,0.9,0,1.3,0c0.5,0,0.9-0.4,0.9-0.9c0-0.5-0.3-0.9-0.8-1c-0.2,0-0.3,0-0.4,0h-1c-1.4,0-2.9,0-4.3,0c0,0,0,0,0,0c0,0,0,0,0,0
		C16,17.4,15.9,17,15.7,16.6L15.7,16.6z M13,18.5c0-0.3,0-0.5,0-0.8c0-0.3,0.2-0.6,0.5-0.6c0,0,0,0,0,0c0.3,0,0.5,0.3,0.5,0.6
		c0,0.7,0,1.5,0,2.2c0,0.3-0.3,0.6-0.5,0.6c0,0,0,0,0,0c-0.3,0-0.5-0.3-0.5-0.6c0-0.2,0-0.5,0-0.8c0-0.1,0-0.2,0-0.3
		C13,18.8,13,18.6,13,18.5L13,18.5z"/>
	<path id="Vector_3" class="st0" d="M5.7,26.5h10.5c0.2,0,0.3,0.1,0.3,0.2c0.1,1.1,1.1,2,2.4,2c0,0,0.1,0,0.1,0
		c1.1,0,2.2-0.8,2.4-1.8c0-0.1,0-0.2,0-0.3c0-0.1,0-0.1,0-0.2c0,0,0.1,0,0.1,0c0.1,0,0.2,0,0.3,0c0.5-0.1,0.8-0.4,0.8-0.8
		c0-0.4-0.3-0.7-0.7-0.8c-0.2,0-0.3-0.1-0.5,0c0-0.5-0.1-1-0.5-1.4c-0.6-0.8-1.7-1.1-2.7-0.8c-1,0.3-1.7,1.1-1.7,2.1
		c0,0,0,0.1,0,0.1c0,0-0.1,0-0.1,0c-1.4,0-2.7,0-4.1,0c-0.4,0-0.8,0-1.2,0H5.7c-0.4,0-0.8,0.1-1,0.3c-0.2,0.1-0.2,0.3-0.2,0.6
		C4.5,26,4.6,26.5,5.7,26.5L5.7,26.5z M18.3,25.6c0-0.1,0-0.2,0-0.3c0-0.2,0-0.4,0-0.6c0-0.3,0.2-0.5,0.5-0.5c0.1,0,0.3,0,0.4,0.1
		c0.1,0.1,0.2,0.2,0.2,0.4c0,0.6,0,1.2,0,1.8c0,0.1-0.1,0.3-0.2,0.4c-0.1,0.1-0.2,0.1-0.4,0.1c-0.3,0-0.5-0.2-0.5-0.5
		c0-0.2,0-0.4,0-0.6c0,0,0,0,0,0h0L18.3,25.6L18.3,25.6z"/>
	<path id="Vector_4" class="st0" d="M26.7,7.3c0-0.4-0.1-0.7-0.4-1c-2-1.9-4-3.8-5.9-5.5c-0.3-0.3-0.7-0.4-1.1-0.4
		c-4.9,0-9.8,0-14.6,0H1.6c-0.9,0-1.3,0.3-1.3,1.2v4c0,8.8,0,18,0,27c0,0.4,0.1,0.9,0.6,1.1L1,33.7l0.1,0H11l0.1,0c0,0,0,0,0.1,0
		c0,0,0.1,0,0.1-0.1c0.4-0.2,0.5-0.5,0.5-0.9c-0.1-0.4-0.4-0.7-0.8-0.8c-0.1,0-0.2,0-0.3,0c0,0-0.1,0-0.1,0H9.1c-2.2,0-4.5,0-6.8,0
		c0,0,0,0,0,0c0,0,0,0,0,0c0-1.3,0-2.6,0-3.9c0-0.4,0-0.8,0-1.3v-3.4c0-7,0-14,0-21v0c0,0,0,0,0,0c0,0,0,0,0,0c4.9,0,10.2,0,16.3,0
		c0,0,0,0,0,0c0,0,0,0,0,0c0,1.2,0,2.3,0,3.5c0,0.4,0,0.8,0,1.2c0,0.8,0.4,1.2,1.2,1.2c0.4,0,0.8,0,1.2,0c1.2,0,2.5,0,3.7,0
		c0,0,0.1,0,0.1,0c0,0,0,0.1,0,0.1c0,8.4,0,16.2,0,23.7c0,0,0,0.1,0,0.1c0,0,0,0-0.1,0c-2.1,0-4.2,0-6.3,0c-0.6,0-1.2,0-1.9,0h-0.1
		c-0.2,0-0.3,0-0.5,0.1c-0.3,0.1-0.6,0.4-0.6,0.7c-0.1,0.3,0.1,0.6,0.3,0.8c0.1,0.1,0.1,0.1,0.2,0.1c0,0,0.1,0,0.1,0l0.1,0.1h10
		l0.1,0c0.7-0.3,0.7-0.9,0.7-1.1C26.7,24,26.7,15.5,26.7,7.3L26.7,7.3z M23.3,6.1h-0.9c-0.6,0-1.2,0-1.8,0c0-0.7,0-1.5,0-2.2
		c0-0.1,0-0.2,0-0.3c0.8,0.8,1.6,1.5,2.4,2.3L23.3,6.1L23.3,6.1z"/>
</g>
</svg>
