<?xml version="1.0" encoding="utf-8"?>
<!-- Generator: Adobe Illustrator 24.0.0, SVG Export Plug-In . SVG Version: 6.00 Build 0)  -->
<svg version="1.1" id="Capa_1" xmlns="http://www.w3.org/2000/svg" xmlns:xlink="http://www.w3.org/1999/xlink" x="0px" y="0px"
	 viewBox="0 0 27 38" style="enable-background:new 0 0 27 38;" xml:space="preserve">
<style type="text/css">
	.st0{fill:none;stroke:#FFFFFF;stroke-width:2;stroke-linecap:round;}
	.st1{fill:none;stroke:#FFFFFF;stroke-width:2;stroke-linecap:round;stroke-linejoin:round;}
</style>
<g id="Group_33869">
	<path id="Vector_134" class="st0" d="M8.7,26.2h10.6"/>
	<path id="Vector_135" class="st0" d="M8.7,31.6h10.6"/>
	<path id="Vector" class="st1" d="M7.7,11.1H4.8c-0.8,0-1.5,0.3-2,0.8c-0.5,0.5-0.8,1.3-0.8,2l0,19.5c0,0.8,0.3,1.5,0.8,2
		c0.5,0.5,1.3,0.8,2,0.8h17.4c0.8,0,1.5-0.3,2-0.8c0.5-0.5,0.8-1.3,0.8-2l0-19.5c0-0.8-0.3-1.5-0.8-2c-0.5-0.5-1.3-0.8-2-0.8h-2.9"
		/>
	<path id="Vector_2" class="st1" d="M19.3,15.6l-5.8,5.8 M13.5,21.4l-5.8-5.8 M13.5,21.4V1.6"/>
</g>
</svg>
