<?xml version="1.0" encoding="utf-8"?>
<!-- Generator: Adobe Illustrator 24.0.0, SVG Export Plug-In . SVG Version: 6.00 Build 0)  -->
<svg version="1.1" id="Capa_1" xmlns="http://www.w3.org/2000/svg" xmlns:xlink="http://www.w3.org/1999/xlink" x="0px" y="0px"
	 viewBox="0 0 50 39" style="enable-background:new 0 0 50 39;" xml:space="preserve">
<style type="text/css">
	.st0{fill:none;stroke:#41BAEA;stroke-width:2;}
	.st1{fill:none;stroke:#41BAEA;stroke-width:2;stroke-linejoin:round;}
	.st2{fill:none;stroke:#41BAEA;stroke-width:2;stroke-linecap:round;stroke-linejoin:round;}
	.st3{fill:none;stroke:#41BAEA;stroke-width:2;stroke-miterlimit:10;}
</style>
<g id="Group_33871">
	<path id="Vector_129" class="st0" d="M3.8,19h13.6"/>
	<path id="Vector_130" class="st0" d="M2.2,24.4h13.6"/>
	<path id="Vector_131" class="st0" d="M0,29.8h13.6"/>
	<g id="Group_33866">
		<g id="Group_33858">
			<path id="Vector" class="st1" d="M32.7,5.3c-0.4-0.5-1-0.8-1.6-0.8h-6.9c-0.9,0-1.7,0.4-2.4,1.1c-0.6,0.7-1,1.7-1,2.8l-2.4,25.1
				c0,1,0.4,2,1,2.8c0.6,0.7,1.5,1.1,2.4,1.1h15.6c0.9,0,1.7-0.4,2.4-1.1c0.6-0.7,1-1.6,1.4-2.7l1.4-13.6v-0.6"/>
			<path id="Vector_2" class="st2" d="M25,23.2h13 M25,29.7h13"/>
		</g>
		<g id="Group_33862">
			<path id="Vector_3" class="st3" d="M48.7,10.3c0-4.9-4-8.9-8.9-8.9c-4.9,0-8.9,4-8.9,8.9c0,4.9,4,8.9,8.9,8.9
				C44.7,19.2,48.7,15.2,48.7,10.3z"/>
			<path id="Vector_4" class="st2" d="M44.2,6.6L38,14l-2.7-3"/>
		</g>
	</g>
</g>
</svg>
