<?xml version="1.0" encoding="utf-8"?>
<!-- Generator: Adobe Illustrator 24.0.0, SVG Export Plug-In . SVG Version: 6.00 Build 0)  -->
<svg version="1.1" id="Capa_1" xmlns="http://www.w3.org/2000/svg" xmlns:xlink="http://www.w3.org/1999/xlink" x="0px" y="0px"
	 viewBox="0 0 31 38" style="enable-background:new 0 0 31 38;" xml:space="preserve">
<style type="text/css">
	.st0{fill:none;stroke:#41BAEA;stroke-width:2;stroke-linejoin:round;}
	.st1{fill:none;stroke:#41BAEA;stroke-width:2;stroke-linecap:round;stroke-linejoin:round;}
	.st2{fill:none;stroke:#41BAEA;stroke-width:2;stroke-miterlimit:10;}
</style>
<g id="Group_33865">
	<g id="Group_33863">
		<path id="Vector" class="st0" d="M14.5,5.8c-0.5-0.5-1.1-0.7-1.7-0.7H5.3c-1,0-1.9,0.4-2.6,1.1C2.1,6.8,1.7,7.8,1.7,8.7v24.2
			c0,1,0.4,1.9,1.1,2.6c0.7,0.7,1.6,1.1,2.6,1.1h16.9c1,0,1.9-0.4,2.6-1.1c0.7-0.7,1.1-1.6,1.1-2.6V18.2c0-0.6-0.3-1.3-0.7-1.7"/>
		<path id="Vector_2" class="st1" d="M7.7,23.2h12.1 M7.7,29.3h12.1"/>
	</g>
	<g id="Group_33864">
		<path id="Vector_3" class="st2" d="M29.3,10.1c0-4.6-3.7-8.3-8.3-8.3s-8.3,3.7-8.3,8.3c0,4.6,3.7,8.3,8.3,8.3S29.3,14.6,29.3,10.1
			z"/>
		<path id="Vector_4" class="st1" d="M23.8,12.8l-5.5-5.5 M18.3,12.8l5.5-5.5"/>
	</g>
</g>
</svg>
