<?xml version="1.0" encoding="utf-8"?>
<!-- Generator: Adobe Illustrator 24.0.0, SVG Export Plug-In . SVG Version: 6.00 Build 0)  -->
<svg version="1.1" id="Capa_1" xmlns="http://www.w3.org/2000/svg" xmlns:xlink="http://www.w3.org/1999/xlink" x="0px" y="0px"
	 viewBox="0 0 25 38" style="enable-background:new 0 0 25 38;" xml:space="preserve">
<style type="text/css">
	.st0{fill:none;stroke:#41BAEA;stroke-width:2;stroke-linecap:round;}
	.st1{fill:none;stroke:#41BAEA;stroke-width:2;stroke-linecap:round;stroke-linejoin:round;}
</style>
<g id="Group_33870">
	<g id="Group_33867">
		<path id="Vector_136" class="st0" d="M7.8,26.5h10.3"/>
		<path id="Vector_137" class="st0" d="M7.8,31.7h10.3"/>
		<path id="Vector" class="st1" d="M6.9,11.8H4c-0.7,0-1.5,0.3-2,0.8c-0.5,0.5-0.8,1.2-0.8,2l0,19c0,0.7,0.3,1.5,0.8,2
			s1.2,0.8,2,0.8H21c0.7,0,1.5-0.3,2-0.8c0.5-0.5,0.8-1.2,0.8-2l0-19c0-0.7-0.3-1.5-0.8-2c-0.5-0.5-1.2-0.8-2-0.8h-2.8 M6.9,7.2
			l5.6-5.6 M12.5,1.6l5.6,5.6 M12.5,1.6v19.2"/>
	</g>
</g>
</svg>
