<?xml version="1.0" encoding="utf-8"?>
<!-- Generator: Adobe Illustrator 24.0.0, SVG Export Plug-In . SVG Version: 6.00 Build 0)  -->
<svg version="1.1" id="Capa_1" xmlns="http://www.w3.org/2000/svg" xmlns:xlink="http://www.w3.org/1999/xlink" x="0px" y="0px"
	 viewBox="0 0 28 37" style="enable-background:new 0 0 28 37;" xml:space="preserve">
<style type="text/css">
	.st0{fill:none;stroke:#41BAEA;stroke-width:2;stroke-linecap:round;stroke-linejoin:round;}
	.st1{fill:none;stroke:#41BAEA;stroke-linecap:round;stroke-miterlimit:10;}
	.st2{fill:none;stroke:#41BAEA;stroke-linecap:round;}
</style>
<g id="Group_33868">
	<g id="Group_33859">
		<path id="Vector" class="st0" d="M8.9,2.5h3.9c0.5,0,1,0.2,1.3,0.5l11.6,8.2c0.3,0.3,0.5,0.8,0.5,1.3l0.3,20.1
			c0,0.7-0.3,1.5-0.8,2c-0.5,0.5-1.2,0.8-2,0.8H8.2c-0.7,0-1.5-0.3-2-0.8c-0.5-0.5-0.8-1.2-0.8-2L5.2,16.4"/>
		<path id="Vector_2" class="st0" d="M13.6,2.5v7.3c0,0.5,0.3,1,0.7,1.4c0.5,0.4,1.1,0.6,1.8,0.6h9.5"/>
		<path id="Vector_3" class="st1" d="M6.1,3.4v8.8c0,0.2,0,0.4-0.1,0.5c-0.1,0.2-0.2,0.3-0.3,0.5c-0.1,0.1-0.3,0.2-0.5,0.3
			c-0.2,0.1-0.4,0.1-0.5,0.1c-0.7,0-1.4-0.5-1.4-1.4V3.9c0-1.8,1-3.3,2.8-3.3s2.8,1.4,2.8,3.2v8.1c0,2.5-1.6,4.5-4.2,4.5
			s-4.2-2-4.2-4.5V7.1"/>
	</g>
	<path id="Vector_136" class="st2" d="M10.8,23.9H21"/>
	<path id="Vector_137" class="st2" d="M10.8,29H21"/>
</g>
</svg>
