<svg id="Capa_1" data-name="Capa 1" xmlns="http://www.w3.org/2000/svg" viewBox="0 0 1960.35 1960.35"><defs><style>.cls-1{fill:#ffc107;}</style></defs><title>IconoModalAdvertencia</title><path class="cls-1" d="M1001,134.18c478.18,0,865.82,387.64,865.82,865.82S1479.18,1865.82,1001,1865.82,135.18,1478.18,135.18,1000c.63-477.92,387.9-865.19,865.82-865.82m0-114.35C459.67,19.83,20.83,458.67,20.83,1000S459.67,1980.17,1001,1980.17s980.17-438.84,980.17-980.17S1542.33,19.83,1001,19.83Z" transform="translate(-20.83 -19.83)"/><path class="cls-1" d="M903.33,632C900.5,555.83,920,517.67,968.67,502.67c68.33-21.5,132.5,30.16,128,104.83-6.5,110.83-15,221.5-22.67,332.17-5.67,83.33-11.5,166.66-16.67,249-2.66,43.66-22,66.66-57,67.5s-55-19.17-58.16-65.5C928.83,1002.5,916.67,814.33,903.33,632Z" transform="translate(-20.83 -19.83)"/><path class="cls-1" d="M1077.83,1422.5a79,79,0,1,1-158-2.17h0a80.17,80.17,0,0,1,78.67-78.16,79,79,0,0,1,79.34,78.65C1077.85,1421.38,1077.84,1421.94,1077.83,1422.5Z" transform="translate(-20.83 -19.83)"/></svg>