<svg id="Capa_1" data-name="Capa 1" xmlns="http://www.w3.org/2000/svg" viewBox="0 0 1960.35 1960.35"><defs><style>.cls-1{fill:#38adce;}</style></defs><title>IconoModalInformacion</title><path class="cls-1" d="M1001,134.18c478.18,0,865.82,387.64,865.82,865.82S1479.18,1865.82,1001,1865.82,135.18,1478.18,135.18,1000c.63-477.92,387.9-865.19,865.82-865.82m0-114.35C459.67,19.83,20.83,458.67,20.83,1000S459.67,1980.17,1001,1980.17s980.17-438.84,980.17-980.17S1542.33,19.83,1001,19.83Z" transform="translate(-20.83 -19.83)"/><path class="cls-1" d="M1095.5,1368.33c2.5,76.17-17.67,114.17-65.67,129.17-68.33,21.17-132.5-30.67-127.83-105.33,7-110.67,16.67-221.34,23.83-332,6-83.34,12-166.67,16.67-249,2.83-43.67,22.17-66.67,57.33-66.67s54.84,19.33,58,65.67C1071.17,997.67,1083.33,1186,1095.5,1368.33Z" transform="translate(-20.83 -19.83)"/><path class="cls-1" d="M923.5,577.33a79,79,0,0,1,158,2.67,80,80,0,0,1-78.83,77.83A79,79,0,0,1,923.49,579h0C923.48,578.45,923.49,577.89,923.5,577.33Z" transform="translate(-20.83 -19.83)"/></svg>