<svg id="Capa_1" data-name="Capa 1" xmlns="http://www.w3.org/2000/svg" viewBox="0 0 1980 1980"><defs><style>.cls-1{fill:#dc3545;}</style></defs><title>IconoModalError</title><path class="cls-1" d="M1001,125.46c483,0,874.5,391.53,874.5,874.5S1484,1874.46,1001,1874.46,126.49,1482.93,126.49,1000c.65-482.7,391.8-873.86,874.51-874.5M1001,10C454.23,10,11,453.2,11,1000s443.23,990,990,990,990-443.23,990-990S1547.76,10,1001,10Z" transform="translate(-11 -10)"/><path class="cls-1" d="M1000,1078.83c-12.7,11.39-24.41,20.63-35,31.19Q840.16,1234.63,715.4,1359.37c-22.43,22.6-47.18,33-76.23,13.69A49.49,49.49,0,0,1,620,1312.51c5-19.47,21.78-30.53,35-43.89,77.56-77.88,154.12-157.08,234.14-232.65,30.36-28.71,26.9-45.7,0-72.43-80.35-77.92-158-158.57-237.93-237C621,696.85,598.92,665.67,636,630s66-4.95,91.74,21c79.37,79,159.06,157.41,236.61,238.09,26.23,27.39,42.24,31.68,70.95,1.16,75.41-80,155.11-155.93,232.48-234.3,29.38-29.7,61.55-63.2,100-22.61s3.47,71.61-26.23,100.82c-75.74,74.57-148.5,152.13-226.22,224.56-36.79,34.32-29.86,54.45,2.65,85.31,79.86,75.73,156.09,155.1,234.8,232,27.55,26.9,45,56.93,16.49,88.78-33,35.64-63.36,16.5-91.9-12.55-79.87-81.18-160.71-161.2-241.39-241.56C1024.28,1100.12,1012.74,1090.55,1000,1078.83Z" transform="translate(-11 -10)"/></svg>