<svg id="Capa_1" data-name="Capa 1" xmlns="http://www.w3.org/2000/svg" viewBox="0 0 1961.39 1961.39"><defs><style>.cls-1{fill:#28a745;}</style></defs><title>IconoModalExitoso</title><path class="cls-1" d="M1000,131.38c478.43,0,866.28,387.84,866.28,866.28S1478.43,1863.93,1000,1863.93,133.71,1476.09,133.71,997.7c.64-478.17,388.11-865.65,866.29-866.28M1000,17C458.37,17,19.3,456,19.3,997.7s439.07,980.69,980.7,980.69,980.7-439.07,980.7-980.69S1541.62,17,1000,17Z" transform="translate(-19.3 -17)"/><path class="cls-1" d="M1558.68,676a73.37,73.37,0,0,1-26.8,49q-314.31,314.64-628.14,629.27c-36.94,36.94-70.44,32.7-104.93-2.61l-326.88-326.9c-28.77-28.28-41.35-59.17-10.29-90.23s62.27-20.1,90.71,8.54c86,86.31,173.91,170.65,257.92,258.74,33.67,35.31,53.61,32.7,87.12-1.3,179.79-184,362.86-365.64,544.94-547.55,21.58-21.58,43-46.59,78.62-31.88A57.53,57.53,0,0,1,1558.68,676Z" transform="translate(-19.3 -17)"/></svg>